<svg fill="none" height="25" viewBox="0 0 25 25" width="25" xmlns="http://www.w3.org/2000/svg" xmlns:xlink="http://www.w3.org/1999/xlink"><mask id="a" height="25" maskUnits="userSpaceOnUse" width="25" x="0" y="0"><path d="m.358398.290039h24v24h-24z" fill="#d9d9d9"/></mask><g mask="url(#a)"><path d="m10.9584 16.89 7.05-7.04996-1.4-1.4-5.65 5.64996-2.85-2.85-1.4 1.4zm1.4 5.4c-1.3833 0-2.68333-.2625-3.9-.7875s-2.275-1.2375-3.175-2.1375-1.6125-1.9583-2.1375-3.175c-.525-1.2166-.7875-2.5166-.7875-3.9 0-1.3833.2625-2.68329.7875-3.89996s1.2375-2.275 2.1375-3.175 1.95833-1.6125 3.175-2.1375 2.5167-.7875 3.9-.7875 2.6833.2625 3.9.7875 2.275 1.2375 3.175 2.1375 1.6125 1.95833 2.1375 3.175.7875 2.51666.7875 3.89996c0 1.3834-.2625 2.6834-.7875 3.9-.525 1.2167-1.2375 2.275-2.1375 3.175s-1.9583 1.6125-3.175 2.1375-2.5167.7875-3.9.7875zm0-2c2.2333 0 4.125-.775 5.675-2.325s2.325-3.4416 2.325-5.675c0-2.2333-.775-4.12496-2.325-5.67496s-3.4417-2.325-5.675-2.325-4.125.775-5.675 2.325-2.325 3.44166-2.325 5.67496c0 2.2334.775 4.125 2.325 5.675s3.4417 2.325 5.675 2.325z" fill="#218c3e"/></g></svg>