<svg width="24" height="24" viewBox="0 0 24 24" fill="none" xmlns="http://www.w3.org/2000/svg">
<mask id="mask0_356_264" style="mask-type:alpha" maskUnits="userSpaceOnUse" x="0" y="0" width="24" height="24">
<rect width="24" height="24" fill="#D9D9D9"/>
</mask>
<g mask="url(#mask0_356_264)">
<path d="M8.7 15.9885L8.0115 15.3L12.8115 10.5H8.5V9.5H14.5V15.5H13.5V11.1885L8.7 15.9885ZM19 12V5H12V4H20V12H19ZM5.6155 20C5.15517 20 4.77083 19.8458 4.4625 19.5375C4.15417 19.2292 4 18.8448 4 18.3845V4H5V18.3845C5 18.5385 5.06408 18.6796 5.19225 18.8077C5.32042 18.9359 5.4615 19 5.6155 19H20V20H5.6155Z" fill="#3E3691"/>
</g>
</svg>
