<svg fill="none" height="162" viewBox="0 0 154 162" width="154" xmlns="http://www.w3.org/2000/svg" xmlns:xlink="http://www.w3.org/1999/xlink"><clipPath id="a"><path d="m0 0h154v162h-154z"/></clipPath><g clip-path="url(#a)"><g fill="#42404f"><path d="m27.1174 32.3823-4.7157-10.6629 1.3966-1.2873 10.1582 5.6677-1.0426.9606-9.4504-5.2354.3156-.2882 4.3713 9.8945-1.0426.9606zm-.4304-3.1124-.8609-.951 4.2278-3.881.8609.9511z"/><path d="m35.9461 24.592-6.007-9.2796 1.1574-.7589 9.5079 4.1018-4.6966-7.2527 1.1574-.7493 6.007 9.2797-1.1574.7493-9.5174-4.1115 4.6965 7.2527-1.1574.7589z"/><path d="m45.9322 18.4148-4.3618-10.1634 3.1183-1.35448c.1052-.04803.287-.12488.5452-.23055.2583-.10567.5165-.19212.7652-.25937.8226-.24015 1.607-.23055 2.3339 0 .727.24016 1.3774.66283 1.9609 1.26803.5739.60519 1.0522 1.34488 1.4252 2.19983.3731.86454.5835 1.71954.6218 2.55524.0478.8358-.0957 1.6043-.4209 2.2959-.3252.6917-.8609 1.2584-1.5974 1.7003-.22.1345-.4591.2594-.7174.3747-.2582.1153-.44.2017-.5356.2401l-3.1183 1.3545zm.7748-1.7579 1.8365-.7973c.1817-.0769.373-.1729.593-.2786.2105-.1057.4018-.2114.5452-.3074.507-.3458.8513-.7685 1.0426-1.2777.1818-.5091.2392-1.0662.1722-1.681-.0765-.6052-.2487-1.2296-.5165-1.8541-.2774-.64357-.6122-1.19113-1.0043-1.66184-.3922-.47071-.8418-.80692-1.3392-1.01826s-1.0426-.24977-1.6261-.11528c-.1817.03843-.3826.09607-.6121.19213-.2296.09606-.4305.17291-.5931.24015l-1.8365.79732z"/><path d="m58.7878 13.5736-1.1669-4.44772-5.2226-5.30266 1.5304-.40346 3.96 4.01541 1.473-5.44675 1.5305-.40346-1.9513 7.19509 1.1669 4.44775-1.3295.3554z"/><path d="m69.7209 11.4505-.6983-11.047196 6.4183-.41306962.0861 1.36408562-5.06.32662.22 3.47746 4.1417-.26897.0861 1.36409-4.1418.26897.3061 4.84161z"/><path d="m77.7557 10.9799 4.5243-10.749431 1.8939.144094 2.8313 11.316137-1.4156-.1056-2.6496-10.49967.4304.02881-4.1991 9.97126-1.4061-.1056zm1.9704-2.44001.0956-1.27764 5.7105.44189-.0957 1.27764z"/><path d="m89.4539 12.1516 2.5826-10.75902 4.2374 1.02787c.1052.02882.2296.05764.3731.10567.1434.04803.2774.09606.4017.1537.5548.23055.9948.54755 1.32.95102.3252.40346.5261.86456.6122 1.3833s.0574 1.06629-.0765 1.63306c-.2009.83575-.5931 1.50819-1.167 2.00771-.5739.49953-1.3009.73008-2.1713.68205l-.5261-.03843-3.3-.79732-.9565 3.97699-1.32-.317zm2.5826-4.91842 2.86.69166c.0957.01921.2009.04803.3253.06724.1243.01921.2391.02882.3634.02882.3635 0 .6792-.07685.9374-.24016.2678-.1633.4783-.37464.6504-.63401.1722-.25937.287-.53795.3635-.84535.0766-.2978.0957-.6052.0574-.9126-.0287-.3074-.1339-.59559-.2965-.86456-.1626-.26898-.4017-.48031-.727-.64362-.1052-.04803-.2104-.09606-.3347-.13449-.1148-.03842-.2296-.06724-.3157-.09606l-2.86-.69165-1.0235 4.25557zm3.7974 6.45542-1.0617-4.88959 1.4061-.08646 1.1765 5.34105z"/><path d="m100.004 14.8605 4.477-10.11538 1.129.50913.239 9.75035 7.346-6.36895 1.148.50914-4.467 10.10581-1.186-.5284 3.252-7.3584-6.677 5.8406-.66-.2978-.162-8.89535-3.262 7.36795-1.1862-.5283z"/><path d="m112.592 20.98 6.141-9.1836 5.777 3.9001-.717 1.0759-4.649-3.1412-1.922 2.8819 3.883 2.6225-.717 1.0759-3.884-2.6225-2.056 3.074 4.649 3.1412-.718 1.0759-5.777-3.9001z"/><path d="m120.713 26.705 7.451-8.1557 3.214 2.9587c.077.0769.172.1634.278.269.105.1057.201.2114.277.3266.383.4707.612.9607.689 1.4794.076.5187.038 1.0183-.134 1.5082s-.459.9606-.851 1.3929c-.584.634-1.244 1.0279-1.99 1.1912s-1.492 0-2.229-.4611l-.44-.2882-2.496-2.3055-2.755 3.0163-1.004-.9222zm4.63-3.0452 2.171 1.9982c.067.0672.153.1344.258.2113.105.0768.201.1441.297.2017.315.1825.621.2594.937.2498s.603-.0865.88-.2402c.277-.1441.517-.3362.727-.5571.21-.2306.373-.4803.488-.7685s.172-.586.162-.8934c-.019-.3074-.124-.6148-.325-.9126-.067-.0961-.143-.1921-.229-.2786s-.163-.1729-.239-.2402l-2.172-1.9981-2.946 3.2277zm.2 7.5025 1.426-4.7935 1.272.6052-1.55 5.245z"/><path d="m30.0922 147.101 5.9495-9.318 3.6635 2.363c.0861.057.1913.134.3157.221.1243.086.2295.182.3347.278.4496.404.7653.846.9279 1.336.1722.49.2104.989.1243 1.508s-.2869 1.018-.6026 1.518c-.3156.499-.6887.893-1.1287 1.191-.4304.298-.9087.471-1.4156.519-.5166.048-1.0426-.048-1.5879-.298-.1243-.058-.2582-.125-.3826-.192-.1339-.068-.2391-.135-.3252-.192l-2.5156-1.624-2.2 3.439-1.1479-.74zm4.0365-3.804 2.4774 1.594c.0765.048.1817.106.2869.164.1053.057.22.105.3253.144.3443.125.66.153.966.086.3061-.067.574-.192.8227-.384.2486-.192.4495-.413.6217-.672.1722-.26.2869-.538.3539-.846.067-.307.0765-.605 0-.912-.067-.298-.2296-.586-.4783-.846-.0765-.086-.1721-.163-.2678-.24-.0956-.077-.1913-.144-.2678-.192l-2.4774-1.595-2.353 3.689z"/><path d="m44.44 155.391c-1.0043-.442-1.76-1.038-2.267-1.787-.5069-.749-.7747-1.604-.7939-2.565-.0191-.951.1913-1.95.6409-2.997s1.033-1.883 1.7504-2.517 1.5113-1.018 2.4105-1.162c.8991-.144 1.8461.01 2.8504.451 1.0139.442 1.7696 1.038 2.2765 1.797.507.759.7748 1.604.7939 2.565.0192.951-.2008 1.95-.6504 2.997s-1.033 1.883-1.7409 2.517c-.7078.634-1.5113 1.018-2.4104 1.162-.8991.135-1.8461-.01-2.86-.451zm.5165-1.201c.7557.336 1.4539.442 2.1044.317.6504-.125 1.2339-.442 1.7504-.941.5165-.5.9565-1.163 1.3009-1.97.3539-.806.5356-1.575.5452-2.295.0096-.721-.153-1.364-.507-1.931-.3539-.557-.8991-1.009-1.6547-1.345-.7557-.336-1.454-.442-2.0948-.317-.6505.125-1.2339.442-1.7505.951-.5165.509-.9565 1.162-1.3104 1.969s-.5356 1.566-.5548 2.286c-.0095.721.1531 1.365.507 1.931.3539.567.9087 1.019 1.6548 1.355z"/><path d="m53.24 158.504 2.707-10.731 4.2182 1.076c.1052.029.2296.058.3635.106.1435.048.2774.096.4017.154.5548.24.9948.557 1.3105.97.3156.413.5165.874.593 1.393s.0478 1.066-.0956 1.633c-.2105.836-.6026 1.498-1.1957 1.998-.5835.5-1.3104.72-2.1809.663l-.526-.048-3.2905-.836-1.0043 3.958-1.32-.336zm2.64-4.88 2.86.73c.0957.019.2009.048.3252.067.1244.019.2392.029.3635.038.3635 0 .6791-.067.9374-.221.2678-.153.4878-.365.66-.624s.2965-.538.373-.836c.0766-.298.0957-.605.067-.912-.0287-.308-.1244-.596-.287-.865s-.4017-.48-.7174-.643c-.1052-.049-.2104-.097-.3347-.145-.1244-.048-.22-.076-.3157-.096l-2.8504-.73-1.0713 4.246zm3.7209 6.503-1.0044-4.899 1.4061-.067 1.1096 5.36-1.5113-.384z"/><path d="m68.1043 161.472.9757-9.722-3.74-.375.1243-1.296 8.8287.893-.1243 1.297-3.74-.375-.9661 9.722-1.3583-.135z"/><path d="m76.8278 162-.3539-11.057 6.4278-.211.0479 1.364-5.06.163.1147 3.478 4.1418-.135.0478 1.364-4.1417.135.153 4.851-1.3582.048z"/><path d="m91.6539 160.857c-1.0808.202-2.0374.125-2.8791-.221-.8418-.346-1.5304-.903-2.0852-1.681s-.9183-1.729-1.1287-2.853c-.2009-1.124-.1818-2.142.0574-3.065.2391-.922.6982-1.69 1.3582-2.305.6696-.615 1.54-1.018 2.6209-1.22s2.047-.125 2.8887.221 1.5304.903 2.0756 1.681c.5453.778.9183 1.729 1.1192 2.853.2008 1.124.1817 2.142-.0574 3.064-.2391.923-.6887 1.691-1.3583 2.306-.6695.615-1.54 1.018-2.6304 1.22zm-.2295-1.278c.813-.144 1.4443-.451 1.9226-.912.4687-.471.7843-1.057.9278-1.768.153-.711.153-1.498 0-2.363-.1531-.865-.4304-1.604-.8226-2.209-.3922-.606-.8896-1.048-1.4922-1.317s-1.3104-.336-2.1139-.192-1.4444.442-1.913.913c-.4687.471-.7748 1.057-.9279 1.767-.153.711-.153 1.499 0 2.373.1531.865.4209 1.604.8131 2.21.3921.605.8895 1.047 1.4921 1.316.6027.269 1.3105.336 2.1235.192z"/><path d="m100.75 158.455-3.5674-10.471 1.2913-.442 3.1471 9.242 4.84-1.662.421 1.229-6.122 2.104z"/><path d="m110.201 154.853-4.591-10.058 1.233-.566 4.592 10.057z"/><path d="m119.642 150.098c-.938.576-1.856.855-2.765.845-.908-.009-1.75-.278-2.544-.807-.794-.528-1.483-1.277-2.076-2.248-.593-.97-.947-1.93-1.052-2.872-.115-.951.038-1.835.431-2.651.392-.817 1.061-1.518 1.999-2.094.937-.577 1.865-.865 2.764-.855.909.009 1.751.278 2.544.807.794.528 1.483 1.277 2.076 2.248.593.97.947 1.93 1.062 2.872.115.951-.029 1.825-.431 2.642-.401.816-1.061 1.517-2.008 2.094zm-.679-1.114c.698-.423 1.186-.942 1.454-1.557.267-.605.344-1.268.229-1.988-.115-.721-.402-1.451-.861-2.2s-.985-1.335-1.559-1.758c-.583-.423-1.205-.653-1.865-.682s-1.339.163-2.047.596c-.698.432-1.186.941-1.454 1.546s-.344 1.268-.23 1.989c.115.72.402 1.45.861 2.209.459.749.976 1.345 1.559 1.768.584.422 1.206.653 1.866.682s1.348-.164 2.047-.596z"/></g><path d="m21.12 133.133c-12.80782-13.737-20.641736-32.2-20.641736-52.4978 0-14.9378 4.246956-28.8861 11.593036-40.6826" stroke="#42404f" stroke-miterlimit="10"/><path d="m141.929 39.9526c7.346 11.7965 11.593 25.7448 11.593 40.6826 0 20.2978-7.834 38.7608-20.642 52.4978" stroke="#42404f" stroke-miterlimit="10"/></g></svg>