<svg fill="none" height="118" viewBox="0 0 177 118" width="177" xmlns="http://www.w3.org/2000/svg"><path d="m20.4231 29.8925h1.9546v57.7901h-1.9546z" fill="#7f3f98"/><g fill="#000"><path d="m41.8111 32.527v1.1615c.5949.0283 1.0198.1416 1.2464.1983-.1133-.6799-.5949-1.1898-1.2464-1.3598zm-.7082-.8215c0 .3966-.085.6515-.1983.8215 0 0 .1983-.0566.4532-.0566.17 0 .425.0566.4533.0566-.1133-.17-.1983-.4249-.1983-.8215.8782 0 1.0765.3966 1.0765.7365h.1699v-1.983h-.1699c0 .34-.2267.7366-1.0765.7366 0-.8782.3966-1.0765.7365-1.0765v-.17h-1.983v.17c.34 0 .7366.2266.7366 1.0765-.8782 0-1.0765-.3966-1.0765-.7366h-.17v1.983h.17c0-.3399.1983-.7365 1.0765-.7365zm-.1983.8215c-.6233.17-1.1048.7082-1.2465 1.3598.2266-.0567.6516-.17 1.2465-.1983zm1.0765 28.7534c0 .3966.3399.7366.7365.7366s.7365-.34.7365-.7366-.3399-.7365-.7365-.7365c-.4249.0283-.7365.3399-.7365.7365zm.3682 0c0-.1983.17-.3682.3683-.3682s.3683.1699.3683.3682-.17.3683-.3683.3683c-.2266 0-.3683-.1416-.3683-.3683zm-1.6997-9.6033c0-.3683-.2833-.6516-.6515-.6516h-3.6827c-.3117 0-.5666.255-.5666.5666 0 .2266.17.3966.3966.3966s.3966-.17.3966-.4249c.085.085.17.1416.2833.1983-.0567.2266-.1133.5382-.1417.9065-.0566-.085-.1416-.1133-.2266-.1133-.1416 0-.2833.1133-.2833.2833 0 .1416.1133.2832.2833.2832.085 0 .17-.0566.2266-.1133 0 .1983 0 .3966.0284.6233-.0567-.0284-.1134-.0567-.17-.0567-.1417 0-.2833.1133-.2833.2833 0 .1416.1133.2833.2833.2833.085 0 .1983-.0567.2266-.1417 0 .0283 0 .0567.0283.085.0567.17.1134.3399.17.4816-.0283-.0283-.085-.0283-.1416-.0283-.1417 0-.2833.1133-.2833.2832 0 .1417.1133.2833.2833.2833.1416 0 .2549-.1133.2833-.2266.0849.17.1983.3399.3399.5099h-.0567c-.1416 0-.2832.1133-.2832.2833s.1133.2833.2832.2833c.1417 0 .2833-.1133.2833-.2833v-.0283c.425.4249.9632.7932 1.6147 1.0481l-.1133.8499s.255.1133.6516.2266.7649.17.7649.17zm-3.3427.3399s.0283 0 .0566.0284l2.0113 4.0793c-2.4929-1.1332-2.2379-3.1728-2.0679-4.1077zm2.1246 3.796-1.8414-3.711c.1134.0283.2267.0283.34.0283l1.5864 3.2012zm.1133-.8215-1.4164-2.8895c.1133 0 .1983-.0283.2833-.0566l1.1898 2.4362zm.1133-.8215-1.0765-2.153c.085-.0283.17-.0566.255-.1133l.8782 1.7564zm.1133-.8215-.7648-1.5298c.0849-.0566.1699-.1133.2266-.1699l.5949 1.1898zm.1983-1.4165-.085.6233-.4815-.9915c.0566-.0284.1133-.0284.1699-.0284.2267-.0283.425.17.3966.3966zm-1.7563-16.6571c0-.2266.1983-.4249.4249-.4249s.4249.1983.4249.4249c0 .2549-.1983.4249-.4249.4249-.2266.0283-.4249-.17-.4249-.4249zm-5.6374 3.0028c0-.2266.1983-.4249.4249-.4249.255 0 .4249.1983.4249.4249 0 .255-.1983.4249-.4249.4249s-.4249-.1983-.4249-.4249zm-.2266-1.1048c0-.255.1983-.4249.4249-.4249s.4249.1983.4249.4249-.1983.4249-.4249.4249c-.2266.0283-.4249-.1699-.4249-.4249zm.085-1.1048c0-.2266.1983-.4249.4249-.4249.2549 0 .4249.1983.4249.4249s-.1983.4249-.4249.4249-.4249-.1983-.4249-.4249zm.5948-.9632c0-.2266.1983-.4249.425-.4249.2549 0 .4249.1983.4249.4249s-.1983.4249-.4249.4249c-.2267.0284-.425-.1699-.425-.4249zm.9066-.6515c0-.2267.1983-.425.4249-.425s.4249.1983.4249.425c0 .2549-.1983.4249-.4249.4249-.2266.0283-.4249-.17-.4249-.4249zm1.1048-.1983c0-.2267.1983-.425.4249-.425.255 0 .4249.1983.4249.425 0 .2266-.1983.4249-.4249.4249-.2266.0283-.4249-.17-.4249-.4249zm1.0765.2266c0-.2266.1983-.4249.4249-.4249.2549 0 .4249.1983.4249.4249s-.1983.4249-.4249.4249c-.2266.0283-.4249-.17-.4249-.4249zm1.0481.4249c0-.2266.1983-.4249.4249-.4249.255 0 .425.1983.425.4249 0 .255-.1983.4249-.425.4249-.2266 0-.4249-.1983-.4249-.4249zm7.3371.3683c0-.2266-.1983-.4249-.4249-.4249-.2267 0-.425.1983-.425.4249 0 .2549.1983.4249.425.4249.2266.0283.4249-.17.4249-.4249zm5.6374 3.0028c0-.2266-.1983-.4249-.425-.4249-.2549 0-.4249.1983-.4249.4249 0 .255.1983.4249.4249.4249.2267 0 .425-.1983.425-.4249zm.2266-1.1048c0-.255-.1983-.4249-.4249-.4249-.2267 0-.425.1983-.425.4249s.1983.4249.425.4249c.2266.0283.4249-.1699.4249-.4249zm-.1133-1.1048c0-.2266-.1983-.4249-.425-.4249-.2549 0-.4249.1983-.4249.4249s.1983.4249.4249.4249c.255 0 .425-.1983.425-.4249zm-.5666-.9632c0-.2266-.1983-.4249-.4249-.4249s-.4249.1983-.4249.4249.1983.4249.4249.4249c.2266.0284.4249-.1699.4249-.4249zm-.9065-.6515c0-.2267-.1983-.425-.4249-.425-.255 0-.425.1983-.425.425 0 .2549.1983.4249.425.4249.2266.0283.4249-.17.4249-.4249zm-1.1048-.1983c0-.2267-.1983-.425-.4249-.425-.255 0-.425.1983-.425.425 0 .2266.1983.4249.425.4249.2266.0283.4249-.17.4249-.4249zm-1.1048.2266c0-.2266-.1983-.4249-.425-.4249-.2549 0-.4249.1983-.4249.4249s.1983.4249.4249.4249c.255.0283.425-.17.425-.4249zm-1.0482.4249c0-.2266-.1983-.4249-.4249-.4249s-.4249.1983-.4249.4249c0 .255.1983.4249.4249.4249.2549 0 .4249-.1983.4249-.4249zm-.4249 6.6289c0-.255-.2266-.4816-.4816-.4816s-.4816.2266-.4816.4816c0 .2549.2266.4816.4816.4816s.4816-.2267.4816-.4816zm-3.1445 2.8895v5.4957h4.8725v-5.4957zm4.7309 5.3541h-4.5892v-5.1841h4.5609z"/><path d="m42.5759 44.7649h-.2832v4.8159h4.1926v-4.8159h-2.6629zm3.6261.1417v.1416h.1416v4.2493h-.1416v.1416h-3.6261v-.1416h-.1416v-4.2493h.1416v-.1416z"/><path d="m46.0037 46.153-.2266.2266s-.0283 0-.0283.0284l-.425.3966c-.1416.1133-.1699.3116-.0566.4532l.2549.34c.0284.0283.0284.0566.0284.1133 0 .0283-.0284.085-.0567.085-.0283.0283-.0567.0283-.1133.0283-.0283 0-.085-.0283-.085-.0567 0 0-.255-.3399-.3683-.5099v-.4816l.5949-.5665v-.4816l-.1983-.1983.255-.255h-1.0482l-.2549.255v.2833c.0283-.0284.085-.0284.1133-.0284.1133 0 .2266.1134.2266.2267s-.1133.2266-.2266.2266c-.0283 0-.085 0-.1133-.0283v.3399h-.3683l-.4249-.5949c.0566-.0566.085-.1416.085-.2266 0-.17-.1417-.2833-.2833-.2833-.0567 0-.1133.0283-.17.0567v.4815h.0283l.3966.5666.1983.2833h.4816l-.2549.255h-.5099c-.0284-.1134-.1417-.17-.255-.17s-.2266.085-.255.17c0 .0283-.0283.0566-.0283.1133 0 .0566.0283.1416.0567.1699h1.1614l.1983.2833h-.7932l.3116.4249.17.2267h-.3966c-.0283-.1133-.1416-.1983-.2833-.1983-.1133 0-.2266.085-.2832.1983v.085c0 .0849.0283.1416.0849.1983h1.4448l-.1983-.2833-.17-.2267h.4533l.1699.2267.1983.2833h.6799v.3116h-.085c-.0283-.1133-.1416-.1983-.2832-.1983-.1417 0-.2267.085-.2833.1983v.085c0 .0849.0283.1416.085.1983h.8498v-.9066h-.5666l-.2832-.3682c.0566.0566.1133.1133.1983.1133.0849 0 .1699 0 .2549-.0567.085-.0566.1133-.1416.1417-.2266 0-.085 0-.17-.0567-.2549l-.255-.34c-.0566-.0566-.0283-.17.0284-.1983l.1133-.1133c.1133.085.2549.085.3683 0 .0566-.0567.0849-.1133.0849-.1983zm-3.9943-4.6175-.6516.6515-.6515-.6515.6515-.6516zm-4.3909 0c0-.255.2266-.4816.4816-.4816.2549 0 .4815.2266.4815.4816 0 .2549-.2266.4816-.4815.4816-.255 0-.4816-.2267-.4816-.4816zm8.8668 12.3512v-.1417c0-.1982-.1416-.3399-.3399-.3399h-1.2182c0-.1416-.1416-.2833-.2833-.2833-.0849 0-.1416.0284-.1983.085l-.3682.3683h2.068c.0849 0 .1416.0566.1416.1416s-.0567.1417-.1416.1417h-2.408v-.34l.425-.4249h-1.6714l.4249.4249v.6232l-.6799-.5382c.0567-.0566.085-.1416.085-.2266 0-.17-.1416-.2833-.2833-.2833-.0566 0-.1416.0283-.1983.0567v.5099l1.0482.8498-.4816.1417c-.0283-.1134-.1416-.1983-.2833-.1983-.17 0-.2833.1416-.2833.2832 0 .0567.0284.1417.0567.17h.5949l2.6062-.8215v.3966l-.3399.1416c-.0284-.1416-.1417-.2266-.2833-.2266-.17 0-.2833.1416-.2833.2833 0 .0566.0283.1416.0566.17h.6516l.3966-.1983.255-.1134-.1134-.2549v-.0567h.9632c0 .0284-.0283.085-.0283.1133-.0283.0567-.0567.1417-.085.1983-.0567-.0566-.1416-.0849-.2266-.0849-.17 0-.2833.1416-.2833.2832 0 .0567.0283.1417.0566.17h.5949c.085-.17.1417-.3683.17-.4816.085-.2549.1417-.4816.1417-.5665.0283.0283-.255.0283-.255.0283zm-3.1445.0283-.2832-.2833h.5665zm3.1728-2.1246c.0284-.0567.0284-.085.0284-.1417 0-.1983-.1417-.3399-.34-.3399h-1.2748c0-.1416-.1416-.2833-.2833-.2833-.0849 0-.1416.0283-.1983.085l-.3682.3683h2.1529c.085 0 .1417.0566.1417.1416s-.0567.1417-.1417.1417h-2.4929v-.34l.425-.4249h-1.6714l.4249.4249v.6232l-.6799-.5382c.0567-.0567.085-.1416.085-.1983 0-.17-.1416-.2833-.2833-.2833-.0566 0-.1416.0283-.1983.0567v.5099l1.0199.8215-.4816.1417c-.0284-.1134-.1417-.1983-.2833-.1983-.17 0-.2833.1416-.2833.2832 0 .0567.0283.1417.0567.1983h.5949l2.6062-.8215v.4249l-.34.1134c-.0283-.1134-.1416-.1983-.2833-.1983-.1699 0-.2832.1416-.2832.2832 0 .0567.0283.1417.0566.1983h.6516l.6515-.1983.3116-.1133-.2549-.2266-.17-.17h1.1615v.3116c-.0567-.0566-.1417-.1133-.2266-.1133-.17 0-.2833.1417-.2833.2833 0 .0567.0283.1417.0566.1983h.7366v-1.0481zm-3.1728.0283-.2832-.2833h.5665zm2.0963 3.6544h-.5099c0-.1417-.1416-.2833-.2833-.2833-.0849 0-.1416.0283-.1983.085l-.3682.3683h1.3881c.085 0 .1416.0566.1416.1416s-.0566.1416-.1416.1416h-1.6714v-.2832l.4249-.425h-1.6714l.425.425v.7082l-.6799-.6233c.0566-.0566.1133-.1416.1133-.2266 0-.17-.1416-.2833-.2833-.2833-.0566 0-.1416.0284-.1983.0567v.4816l1.0765.9915.0567-.0567-.6799.8215c-.0567-.0566-.1417-.0566-.1983-.0566-.17.0283-.2833.17-.255.3116 0 .0567.0283.1133.0567.17.1133 0 .2549-.0284.4816-.0567l.7648-.9065c.1133-.0283.1983-.085.3116-.1133l.3116.2833-.1699.085c-.085-.0567-.1983-.085-.2833-.0567-.1416.0567-.2266.2266-.17.3683.0284.0566.0567.085.085.1133 0 0 .1133-.0283.2266-.085s.2267-.085.2267-.085c.1416-.0566.2549-.1133.3682-.17v-.7648c.1983-.1133.3683-.2267.5099-.3683l.2833.255c-.0566.0566-.1133.0849-.1983.1416-.085-.0567-.1983-.0567-.2833 0-.0566.0283-.1133.1133-.1416.17v.1133c0 .0283.0283.085.0283.1133.0284.0567.085.085.1417.1133.1416-.085.2549-.17.3966-.2549.085-.0567.1983-.1417.2833-.2267l.0849-.085v-.3682h.1983c.1983 0 .34-.1417.34-.34 0-.1699-.1417-.3399-.34-.3399zm-2.0963.5382-.2832-.2833h.5665zm-2.8895-6.9688c.0284-.0566.0284-.085.0284-.1416 0-.1983-.1417-.34-.34-.34h-1.2748c0-.1416-.1416-.2833-.2833-.2833-.0849 0-.1416.0284-.1983.085l-.3682.3683h2.1529c.085 0 .1417.0567.1417.1416 0 .085-.0567.1417-.1417.1417h-2.4645v-.34l.4249-.4249h-1.6714l.4249.4249v.6233l-.6798-.5383c.0566-.0566.0849-.1416.0849-.1983 0-.1699-.1416-.2833-.2832-.2833-.085 0-.1417.0284-.1983.0567v.5099l1.0198.8215-.4816.1417c-.0283-.1133-.1416-.1983-.2833-.1983-.17 0-.2833.1416-.2833.2833 0 .085.0284.1416.0567.1983h.5949l2.6062-.8216v.425l-.3399.1133c-.0284-.1133-.1417-.1983-.2833-.1983-.17 0-.2833.1416-.2833.2833 0 .085.0283.1416.0566.1983h.5949l.6516-.1983.3116-.085-.2549-.2266-.17-.17h1.1615v.3116c-.0567-.0567-.1417-.1133-.2267-.1133-.1699 0-.2833.1416-.2833.2833 0 .085.0284.1416.0567.1983h.7365v-1.0482zm-3.2011.0283-.2833-.2832h.5666zm3.2011-2.0396c.0284-.0567.0284-.085.0284-.1416 0-.1983-.1417-.34-.34-.34h-1.2748c0-.1416-.1416-.2833-.2833-.2833-.0849 0-.1416.0284-.1983.085l-.3682.3683h2.1246c.085 0 .1417.0566.1417.1416s-.0567.1417-.1417.1417h-2.4646v-.34l.425-.4249h-1.6714l.4249.4249v.6233l-.6799-.5383c.0567-.0566.085-.1416.085-.1983 0-.17-.1416-.2833-.2833-.2833-.085 0-.1416.0284-.1983.0567v.5099l1.0199.8215-.4816.1417c-.0284-.1133-.1417-.1983-.2833-.1983-.17 0-.2833.1416-.2833.2833 0 .0566.0283.1416.0567.1982h.5949l2.6062-.8215v.425l-.34.1133c-.0283-.1133-.1416-.1983-.2833-.1983-.1699 0-.2832.1416-.2832.2833 0 .0566.0283.1416.0566.1982h.6232l.6516-.1982.3116-.1134-.2549-.2266-.17-.17h1.1615v.3117c-.0567-.0567-.1417-.1134-.2267-.1134-.1699 0-.2833.1417-.2833.2833 0 .0567.0284.1417.0567.1983h.7365v-1.0765h-.3116zm-3.2011.0283-.2833-.2833h.5666zm3.2011-2.068c.0284-.0566.0284-.0849.0284-.1416 0-.1983-.1417-.3399-.34-.3399h-1.2748c0-.1417-.1416-.2833-.2833-.2833-.0849 0-.1416.0283-.1983.085l-.3682.3682h2.1246c.085 0 .1417.0567.1417.1417s-.0567.1416-.1417.1416h-2.4646v-.3399l.425-.425h-1.6714l.4249.425v.6232l-.6799-.5382c.0567-.0567.085-.1417.085-.1983 0-.17-.1416-.2833-.2833-.2833-.085 0-.1416.0283-.1983.0566v.5099l1.0199.8216-.4816.1416c-.0284-.1133-.1417-.1983-.2833-.1983-.17 0-.2833.1417-.2833.2833 0 .085.0283.1416.0567.1983h.5949l2.6062-.8215v.4249l-.34.1133c-.0283-.1133-.1416-.1983-.2833-.1983-.1699 0-.2832.1417-.2832.2833 0 .085.0283.1416.0566.1983h.5949l.6516-.1983.3116-.085-.255-.2266-.1699-.17h1.1614v.3116c-.0566-.0566-.1416-.1133-.2266-.1133-.17 0-.2833.1417-.2833.2833 0 .085.0283.1416.0567.1983h.7365v-1.0765zm-3.2011.0567-.2833-.2833h.5666zm12.0679 5.1275c.1984-.0567.2833-.255.2267-.425-.0283-.085-.085-.1699-.17-.1983-.085-.0566-.17-.0566-.2549-.0283-.085.0283-.17.085-.1983.17-.0567.085-.0567.1699-.0284.2549.0567.17.255.255.4249.2267zm-.9914.7648.0566.3116 1.1331-.1699c.0284 0 1.1332.5665 1.1332.5665l-.0567-.3966-.7932-.3966c.0567-.0566.6516-.5949.6516-.5949l-.0567-.3966-.0283.0284s-.8782.8215-.9065.8498c0 .0284-1.1331.1983-1.1331.1983zm.8781 1.1048c0 .085.0284.17.1133.255.0567.0567.1417.1133.255.085.085 0 .17-.0283.255-.1133.0566-.0567.0849-.1417.0849-.255 0-.085-.0283-.17-.1133-.2549-.0566-.0567-.1416-.1134-.2549-.1134-.1983.0284-.34.1983-.34.3966zm-.7932.5666-.0283.3116s.8782.1133.9348.1417c0 .0283-.0283.2549-.0283.2549v.1417c0 .1416.0284.2832.1133.3966.085.1133.2267.1983.425.2266.3966.0566.6798-.1417.7365-.5382l.085-.6233zm1.8131.5666c0 .0283-.0284.3116-.0284.3116-.0283.2833-.2549.2833-.3399.2549-.17-.0283-.2833-.1416-.2833-.2832v-.0567s.0283-.2266.0283-.2833c.0567-.0283.5949.0284.6233.0567zm-2.0114.7082-.3682 1.0765.3116.1133s.2549-.7649.2549-.7932c.0284.0283.5383.17.5949.1983-.0283.0566-.2549.7365-.2549.7365l.3116.1133s.2266-.7082.2549-.7365c.0284.0283.5383.17.5666.1983-.0283.0567-.2549.7649-.2549.7649l.3116.1133.3682-1.0765zm-.4249 1.2748-.1416.2266s1.2464.7932 1.3597.8782c-.1416 0-2.0113.17-2.0113.17l-.1416.2266 1.8697 1.1898.1699-.255s-1.2464-.7932-1.3597-.8782c.1416 0 2.0396-.1983 2.0396-.1983l.1417-.2266zm-.7365 2.6629c-.2267.0283-.425.0849-.5666-.0567-.0567-.0567-.1133-.2266.0283-.3683.1417-.1416.34-.1699.5666-.1416h.085l-.34-.34c-.2266.0284-.3966.085-.5382.255-.1133.1133-.17.255-.17.3966 0 .17.0567.3116.1983.4533.2833.2832.5949.2266.8782.1699.1983-.0566.3683-.085.5099.0284.0284.0566.0567.0849.0567.1416 0 .085-.0283.1416-.1133.2266-.1133.1133-.255.17-.4533.1417h-.0566l.3116.3116c.1699-.0283.3116-.085.4249-.1983.1416-.1417.1983-.2833.1983-.4249 0-.1417-.0567-.3117-.1983-.425-.255-.2833-.5666-.2266-.8215-.1699zm-1.3598-.1134-.9348.6233.1699.2833s.6516-.4533.7082-.4816c.0284.0283.3117.4816.34.5099-.0283.0283-.6516.4532-.6516.4532l.17.2833s.6232-.4249.6516-.4249c.0283.0283.3116.4533.3399.5099-.0283.0283-.6799.4533-.6799.4533l.17.2832.9348-.6232zm-8.1869 1.4731c-.0284-.0283-.8499-.5382-.8782-.5665.0283-.0284.5099-.7932.5099-.7932l-.2833-.17v.0283l-1.1615 1.8414.2833.1699s.4816-.7648.5099-.7932c.0284.0284.8499.5383.8782.5666-.0283.0283-.5099.7932-.5099.7932l.2833.17 1.1898-1.8697-.2833-.17c-.0283 0-.5099.7366-.5382.7932zm-1.1332-1.643c.0284-.2833-.085-.5383-.2549-.7366-.4816-.5382-1.1332-.4249-1.5581-.0566-.255.2266-.3966.5099-.3966.7932-.0283.2833.085.5382.2833.7648.3966.4533 1.0765.4816 1.5581.0567.1983-.2266.3399-.5099.3682-.8215zm-.3399 0c0 .1983-.1133.4249-.2833.5665-.3399.3117-.7932.3117-1.0765-.0283-.1416-.1416-.1983-.3399-.17-.5099 0-.1983.1134-.3966.2833-.5666.17-.1416.3966-.2266.5949-.2266s.3683.085.4816.2266c.1133.17.17.34.17.5383zm-.8215-1.8414s-1.3598.6232-1.4731.6799c.0566-.1133.9348-1.8414.9348-1.8414l-.1133-.2549h-.0283l-1.983.9348.1416.2833s1.3598-.6232 1.4731-.6799c-.0567.1133-.9348 1.8414-.9348 1.8414l.1133.2266 1.983-.9348zm-2.8896-1.4731.085.34 2.1247-.5383-.0567-.3399-.0283.0283zm1.1332-1.2464c-.085-.0567-.17-.085-.255-.0567-.085 0-.1699.0567-.2266.1417s-.085.1699-.0567.2549c0 .085.0567.17.1417.2267.085.0566.17.0849.2549.0566.1983-.0283.3117-.1983.2833-.3966-.0283-.1133-.085-.17-.1416-.2266zm-.1417-.8499c.1417-.1983.255-.3682.4533-.3682.0567 0 .1133.0283.17.0849.0566.0567.085.1417.085.2267 0 .1699-.1134.3399-.3117.4816l-.0566.0566h.4816c.1416-.17.1983-.3399.1983-.5666 0-.1416-.0567-.2832-.1417-.3966-.1133-.1133-.2833-.1699-.4532-.1699-.3966 0-.5666.2549-.7366.5099-.1133.17-.1983.3399-.3682.3399-.0567 0-.1134-.0283-.1417-.0566-.0566-.0567-.085-.1417-.085-.2267 0-.1416.085-.3116.2267-.4249l.0566-.0283h-.4249c-.1133.1416-.17.2833-.17.4532 0 .1983.0567.34.17.4533s.2549.17.4249.17c.2833-.0567.4533-.3116.6232-.5383zm-.1416-.9348c.3116.085.6232.0283.8782-.1133.2266-.1417.3966-.3683.4532-.6516.0567-.2833.0284-.5666-.1133-.7932-.1416-.2549-.4249-.4532-.7365-.5099-.6232-.17-1.2181.17-1.3598.7649-.0283.085-.0283.1699-.0283.2549 0 .1983.0566.3683.1416.5099.1983.2833.4533.4816.7649.5383zm-.5099-1.2181c.0566-.1983.17-.34.3116-.4533.17-.1133.3966-.1416.6232-.085.2267.0567.425.1983.5099.3683.085.17.1134.3399.085.5382-.1133.3966-.5099.6233-.9631.5099-.425-.0849-.6799-.4532-.5666-.8781z"/><path d="m51.5278 52.1303c0-2.7195-1.0482-5.2691-2.9745-7.1954-.2267-.2266-.4533-.4249-.7082-.6516v-.3966c.3966-.0283.7365-.3682.7365-.7648 0-.425-.3399-.7649-.7649-.7649h-.0566l.7365-.3399-.2833-.6233 1.1048-2.5779-.4815-.1983-1.1332 2.6346-.5949.2833.3966.8498h-12.2945l.3966-.8498-.6233-.2833-1.1331-2.6346-.4816.1983 1.1048 2.5779-.2833.6233.7366.3399h-.0284c-.4249 0-.7648.3399-.7648.7649 0 .3966.3116.7365.7082.7648v.3966c-.2266.1983-.4816.425-.7082.6516-1.9264 1.9263-2.9745 4.4759-2.9745 7.1954 0 2.0963.6232 4.1077 1.8413 5.8357 1.1898 1.6714 2.8045 2.9462 4.7309 3.6544 0 0 .1133.0283.2833.1133.0283.2833.1983.5382.4532.6232.2833.1133.5949 0 .7649-.1983h.0283v2.8895c0 1.0765.9065 1.9264 2.0397 1.9264 1.1331 0 2.0396-.8782 2.0396-1.9264v-1.9263l4.9858-2.3796c.17-.0567.3117-.1416.4533-.255.3966-.3682.4533-.9348.1983-1.6713.4533-.5099.8499-1.0482 1.1615-1.6431.9065-1.5297 1.3881-3.2578 1.3881-5.0425zm-5.2975-9.2917 1.4731.3116-1.4731.3116zm-4.7308 15.4674v-7.6487h5.8356v1.4447c0 1.4164-.2549 2.3796-.6232 3.0878-.3116.5099-.6799.9915-1.1331 1.4164l-.085.085c-1.0765 1.0199-2.5212 1.5864-3.9943 1.6148zm1.7563.2549c-.1133.255-.1983.5382-.2549.8499-.5666-.1983-1.1048-.3966-1.6431-.5949.6516.0283 1.3031-.085 1.898-.255zm-1.7563-8.1586v-6.4872h5.8356v6.4872zm2.0396-7.5637 1.4731.3116-1.4731.3116zm-2.7195 0 1.4731.3116-1.4731.3116zm-2.7479 0 1.4731.3116-1.4731.3116zm-2.6628 0 1.473.3116-1.473.3116zm0 6.1756v-5.0991h5.8356v6.4872h-5.8356zm0 1.6431h5.8356v7.6487c-1.1898-.0284-2.3512-.3966-3.3427-1.0765-.0284-.0284-.085-.0567-.1134-.085l-.0283-.0283c-.0283-.0284-.0566-.0284-.085-.0567-.0283-.0283-.0566-.0567-.085-.0567l-.0283-.0283c-.6232-.4816-1.1615-1.1048-1.5581-1.813-.3682-.7082-.5948-1.6714-.5948-3.0595zm2.7761 10.5948c-.0849-.0283-.1699-.0566-.2266-.085-1.813-.6799-3.3711-1.898-4.4759-3.4844-1.1331-1.6147-1.7564-3.541-1.7564-5.5524 0-2.5779.9915-4.9858 2.8329-6.8271.1133-.1133.2266-.2267.3399-.3116v2.6345c-.3966-.2833-.8498-.5666-.8781-.5949.0283-.0283.3682-.5666.3682-.5666l-.2833-.1699v.0283l-.9065 1.3598.2833.1699s.34-.5099.3683-.5665c.0283.0283.6232.3966 1.0481.7082v.9348l-1.8696-.8498v.0283l-.1417.2833 2.0113.9348v1.1332c-.1416.5382-.2266 1.1048-.2266 1.6997 0 1.2181.34 2.3512.9065 3.3427.3683.7082.8499 1.1898 1.3031 1.6148.1983.1699.3966.3399.6233.5099.0283 0 .0283.0283.0566.0283.0283.0283.0567.0283.085.0567.0283.0283.0567.0283.085.0566l.0283.0283c.17.1134.34.2267.5383.3117.2549.1133.5949.2832.9915.4532l-.425 1.0482-.1983-.085c-.1133-.0567-.2549 0-.3116.1133-.0566.1133 0 .2549.1133.3116l.1983.085zm4.7026 3.8244c0 .1983-.0567.3966-.1417.5665-.085.1417-.2266.2267-.3682.2267-.1983 0-.3683-.1134-.425-.3116 0-.0284-.0283-.1134-.0566-.255.0566.0283.1133.0283.1699.0283.255 0 .4533-.1983.4533-.4249 0-.255-.1983-.4249-.4533-.4249-.1416 0-.2549.0566-.3399.1416-.1416-.5666-.2833-1.1898-.2833-1.1898h-.1983s-.1416.6232-.2833 1.1898c-.0849-.085-.1983-.1416-.3116-.1416-.2549 0-.4249.1983-.4249.4249 0 .2549.1983.4249.4249.4249.0567 0 .1133 0 .17-.0283-.0283.1133-.0567.2266-.0567.255-.0566.1699-.2266.3116-.4249.3116-.17 0-.3116-.085-.3966-.2267-.085-.1699-.1133-.3682-.1133-.5665v-2.7196c.9065.2833 2.0396.6233 3.0878.8499zm.2266-2.3796c-1.5864-.34-3.4277-.9349-4.5042-1.3031.1133-.255.2833-.7083.4816-1.1898l.2832.1133v.0566c0 .3966.34.7366.7366.7366s.7365-.34.7365-.7366-.3399-.7365-.7365-.7365c-.2266 0-.3966.085-.5383.2549l-.3116-.1416c.17-.4249.3116-.8215.425-1.0482 1.0764.4533 2.4645.9915 3.796 1.4165 1.4164.4249 2.5495.6799 3.3994.7648-1.5014.7366-3.6544 1.7564-3.7677 1.8131zm5.3541-2.6063c-.1417.1417-.4816.2833-1.1898.2833.4816-.3399.9065-.7082 1.3031-1.1331.1133.3966.085.6799-.1133.8498zm-2.0113.2267c-.6799-.085-1.6148-.3116-2.8329-.6799-.0566-.0283-.1133-.0283-.17-.0567.1134-.7082.34-1.1614.7366-1.3881.6232-.2832 1.1898-.6798 1.6997-1.1614.4533-.3966.9065-.8782 1.2465-1.5581.5665-.9915.9065-2.153.9065-3.3711 0-.5666-.085-1.1615-.2267-1.6997v-1.0765l.3116.7932.3117-.1133s-.3117-.7649-.3117-.7932c.0567-.0283 1.7564-.7082 1.7564-.7082l-.1133-.3116h-.0283l-1.898.7648v-.1416l1.2747-1.813-.1133-.1983h-.0283l-1.1331.2549v-2.1246c.1133.1133.2266.1983.3399.3116 1.813 1.813 2.8329 4.2493 2.8329 6.8272 0 1.6714-.425 3.3427-1.2748 4.7875-.7932 1.4448-1.9264 2.6062-3.2861 3.4561zm1.5014-12.153-.1133.17v-.3399zm-.085-.7365c.0566 0 .6232-.1416.7082-.17-.0567.085-.3966.5666-.4249.5949-.0284-.0283-.255-.3682-.2833-.4249z"/><path d="m48.9499 35.8131c-.3966-.5949-1.0482-.8498-1.5298-.8498-.6799 0-1.3881.2832-2.068.5665-.7648.3116-1.558.6233-2.3512.5666.085-.2833.1983-.5666.3399-.7932l-.4816-.2266c.085-.17.17-.3683.1983-.5949-.0566-.0284-.7082-.255-1.7563-.255-1.0482 0-1.6431.2266-1.6997.255.0283.2266.0849.4249.1983.5949l-.4816.2266c.1416.2266.2549.5099.3399.7932-.7932.085-1.5864-.255-2.3512-.5666-.6799-.2833-1.3881-.5665-2.068-.5665-.4816 0-1.1332.2549-1.5298.8498-.3116.4816-.5665 1.3881.1133 2.8329v-.0284l.9915-.4249.0567.17c-.3116.1416-.6232.5099-.255 1.3597.8499-.3682.8782-.8498.7366-1.1614l.17-.0567.4249.9632.4249.9632-.17.0566c-.1416-.3116-.5099-.6232-1.3597-.2549.3682.8498 1.0198 1.1898 1.5297 1.1898.8782 0 1.5014-.5383 1.4164-1.0765-.0566-.3966-.4249-.5383-.5665-.5099-.17.0283-.2833.2266-.255.3399 0 .0283.0283.0567.0283.085l-.0283.0283c-.2266-.0283-.4249-.1983-.4816-.4249-.0566-.2833.1417-.5666.425-.6232.1699-.0284.3399.0283.4815.1416l.0567-.085c-.17-.085-.2833-.2266-.3116-.4249-.085-.4533.4249-.9065.4532-.9065 0 0 .6516.2266.7366.6799.0283.1983-.0284.3682-.1417.5099l.085.0566c.0567-.1416.1983-.2833.3966-.3116.2833-.0566.5666.1417.6232.4249.0567.2267-.0849.4816-.2832.5666l-.0284-.0283v-.085c-.0283-.1416-.1983-.255-.3682-.2266-.1417.0283-.425.2833-.34.6799.1417.6798.7082 1.1614 1.3881 1.1614s1.4164-.5665 1.4164-1.4164c-.9915 0-1.2181.4533-1.2181.8499h-.1983v-2.2663h.1983c0 .3682.255.8498 1.2181.8498 0-.9915-.4532-1.2181-.8498-1.2181v-.1983h2.2379v.1983c-.3682 0-.8498.255-.8498 1.2181.9915 0 1.2181-.4532 1.2181-.8498h.1983v2.2663h-.1416c0-.3683-.255-.8499-1.2182-.8499 0 .8499.7083 1.4164 1.4165 1.4164.6798 0 1.2747-.4816 1.3881-1.1614.0849-.3966-.1983-.6799-.34-.6799-.17-.0284-.3399.085-.3682.2266v.085l-.0284.0283c-.1983-.1133-.3399-.3399-.2833-.5666.0567-.2832.34-.4815.6233-.4249.1699.0283.3116.1417.3966.3116l.0849-.0566c-.1133-.1417-.1699-.3116-.1416-.5099.085-.4533.7365-.6799.7365-.6799s.5383.4532.4533.9065c-.0283.1983-.17.3399-.3116.4249l.0566.085c.1134-.1133.2833-.17.4816-.1416.2833.0566.4816.3399.425.6232-.0567.2549-.255.4249-.4816.4249l-.0284-.0283c.0284-.0283.0284-.0567.0284-.085.0283-.1416-.085-.3116-.255-.3399-.1416-.0284-.5099.1133-.5666.5099-.0849.5382.5666 1.0765 1.4165 1.0765.5099 0 1.1614-.34 1.5297-1.1898-.8498-.3683-1.2181-.0567-1.3598.2549l-.1699-.0566.4249-.9632.4249-.9632.17.0567c-.1416.3116-.1133.7932.7365 1.1614.3683-.8498.0567-1.2181-.2549-1.3597l.0566-.17.9915.4249v.0284c.5949-1.4731.34-2.3513.0284-2.8329zm-9.0935 1.2465c-.4816 0-.8782.2549-1.1048.6515-.255-.4532-.8215-.7365-1.3598-.6232-.3966.085-.7365.3683-.8781.7082-.2267-.3683-.6233-.5949-1.0765-.5949-.5666 0-1.0482.3683-1.2182.8782-.3116-.8215-.3116-1.5014 0-1.983.3117-.4816.8499-.6232 1.0765-.6232.5949 0 1.2182.2549 1.8697.5099.8499.3399 1.728.7082 2.6912.5666.0283.1699.0567.3116.085.4815-.0283.0284-.0567.0284-.085.0284zm1.5014-2.6346c.255 0 .4816.1983.5099.4533-.1416-.1133-.3116-.1983-.5099-.1983s-.3682.085-.5099.1983c.0283-.255.255-.4533.5099-.4533zm0 .4816c.255 0 .4816.1983.5099.4533-.1416-.1134-.3116-.1983-.5099-.1983s-.3682.0849-.5099.1983c.0283-.255.255-.4533.5099-.4533zm0 2.8612c-.2833 0-.5099-.2267-.5099-.5099 0-.2833.2266-.5099.5099-.5099s.5099.2266.5099.5099c0 .2832-.2266.5099-.5099.5099zm.4816-1.1048c-.1416-.1133-.3116-.17-.4816-.17-.1983 0-.3399.0567-.4816.17-.0283-.0567-.0283-.1133-.0283-.17 0-.2833.2266-.5099.5099-.5099s.5099.2266.5099.5099c0 .0567 0 .1133-.0283.17zm.0283-.7082c-.1416-.1134-.3116-.1983-.5099-.1983s-.3682.0849-.5099.1983v-.0284c0-.2833.2266-.5099.5099-.5099s.5099.2266.5099.5099zm6.6289 2.1246c-.17-.5099-.6515-.8782-1.2181-.8782-.4533 0-.8499.2266-1.0765.5949-.17-.3399-.4816-.6232-.8782-.7082-.5666-.1133-1.1048.1416-1.3598.6232-.2266-.3683-.6232-.6515-1.1048-.6515h-.0849c.0283-.1417.0566-.3116.0849-.4816.9632.1416 1.8414-.2266 2.6912-.5666.6516-.2549 1.2748-.5099 1.8697-.5099.2267 0 .7649.1416 1.0765.6232.3116.4533.3116 1.1332 0 1.9547zm-4.3059 6.2039.1133.2267h.1133l-.0283.0849.0283-.0566h.0283l.0284-.0283.1133-.2267h-.1983zm-2.153.1983-.0283.0284v.0849l-.1983-.0283v-.1416l-.1417-.255.0284-.0283.2549.1416h.1417v.1983l-.0567-.0283"/><path d="m42.1793 44.425c-.0283 0-.0566-.0284-.0566-.0567s.0283-.0566.0566-.0566c.0284 0 .0284 0 .0567.0283h.0283v-.0567c0-.0849-.0566-.1416-.1416-.1416s-.1417.0567-.1417.1416c0 .085.0567.1417.1417.1417zm-.2266.2266c0-.0283-.0283-.0567-.0566-.0567-.0284 0-.0567.0284-.0567.0567s0 .0283.0283.0567v.0283h-.0566c-.085 0-.1417-.0567-.1417-.1417 0-.0849.0567-.1416.1417-.1416s.1416.0567.1416.1416zm.085 5.2408-.0283-.0283v-.085l-.1983.0283v.1133l-.1417.255.0284.0566.2549-.17h.1417v-.1982z"/><path d="m42.1793 49.9207c-.0283 0-.0566.0283-.0566.0567 0 .0283.0283.0566.0566.0566.0284 0 .0284 0 .0567-.0283h.0283v.0566c0 .085-.0566.1417-.1416.1417s-.1417-.0567-.1417-.1417c0-.0849.0567-.1416.1417-.1416zm-.2266-.1983c0 .0283-.0283.0567-.0566.0567-.0284 0-.0567-.0284-.0567-.0567s0-.0283.0283-.0566v-.0284h-.0566c-.085 0-.1417.0567-.1417.1417 0 .0849.0567.1416.1417.1416s.1416-.0567.1416-.1416zm4.7875.17.0284-.0284v-.0849l.1983.0283v.1133l.1416.255-.0283.0566-.255-.17h-.1416v-.1983z"/><path d="m46.5986 49.9207c.0283 0 .0567.0283.0567.0567 0 .0283-.0284.0566-.0567.0566s-.0283 0-.0567-.0283h-.0283v.0566c0 .085.0567.1417.1417.1417.0849 0 .1416-.0567.1416-.1417 0-.0849-.0567-.1416-.1416-.1416zm.2266-.1983c0 .0283.0284.0567.0567.0567s.0566-.0284.0566-.0567 0-.0283-.0283-.0566v-.0284h.0567c.085 0 .1416.0567.1416.1417 0 .0849-.0566.1416-.1416.1416s-.1417-.0567-.1417-.1416zm-.085-5.2408.0284.0284v.0849l.1983-.0283v-.1416l.1416-.255-.0283-.0283-.255.1416h-.1416v.1983l.0566-.0283"/><path d="m46.5986 44.425c.0283 0 .0567-.0284.0567-.0567s-.0284-.0566-.0567-.0566-.0283 0-.0567.0283h-.0283v-.0567c0-.0849.0567-.1416.1417-.1416.0849 0 .1416.0567.1416.1416 0 .085-.0567.1417-.1416.1417zm.2266.2266c0-.0283.0284-.0567.0567-.0567s.0566.0284.0566.0567 0 .0283-.0283.0567v.0283h.0567c.085 0 .1416-.0567.1416-.1417 0-.0849-.0566-.1416-.1416-.1416s-.1417.0567-.1417.1416zm-2.6628.17h.4249v.1699h-.4249zm.1133.1983h.2266l-.085.1699h-.0566z"/><path d="m44.7006 44.9915-.0283.0284c-.0284 0-.0567-.0284-.0567-.0567s.0283-.0566.0567-.0566h-.0567c-.0566 0-.1133.0566-.1133.1133 0 .0566.0567.1133.1133.1133.0567 0 .1133-.0567.1133-.1133-.0283 0-.0283 0-.0283-.0284zm-.6232 0 .0283.0284c.0283 0 .0567-.0284.0567-.0567s-.0284-.0566-.0567-.0566h.0567c.0566 0 .1133.0566.1133.1133 0 .0566-.0567.1133-.1133.1133-.0567 0-.1134-.0567-.1134-.1133.0284 0 .0284 0 .0284-.0284zm.5099 5.0992-.1133-.2267-.085-.0283h-.0283-.0284l-.0283.0283-.1133.2267h.1983zm-.3966-.7649h.4249v.17h-.4249z"/><path d="m44.5023 49.3541h-.2266l.085-.1983h.0566zm-.4249.0284.0283-.0284c.0283 0 .0567.0284.0567.0567s-.0284.0567-.0567.0567h.0567c.0566 0 .1133-.0567.1133-.1134 0-.0566-.0567-.1133-.1133-.1133-.0567 0-.1134.0567-.1134.1133.0284 0 .0284 0 .0284.0284zm.6232 0-.0283-.0284c-.0284 0-.0567.0284-.0567.0567s.0283.0567.0567.0567h-.0567c-.0566 0-.1133-.0567-.1133-.1134 0-.0566.0567-.1133.1133-.1133.0567 0 .1133.0567.1133.1133-.0283 0-.0283 0-.0283.0284zm2.2663-2.408-.2267.1134v.1133l-.0566-.0284.0566.0567h-.0283l.0283.0283.2267.1133v-.1983zm-.7366 0h.17v.425h-.17zm0 .085v.2267l-.1699-.085v-.0567z"/><path d="m46.287 47.4845-.0283-.0284c0-.0283.0283-.0566.0566-.0566.0284 0 .0567.0283.0567.0566v-.0566c0-.0567-.0567-.1133-.1133-.1133-.0567 0-.1133.0566-.1133.1133 0 .0566.0566.1133.1133.1133zm0-.5949-.0283.0283c0 .0283.0283.0566.0566.0566.0284 0 .0567-.0283.0567-.0566v.0566c0 .0567-.0567.1134-.1133.1134-.0567 0-.1133-.0567-.1133-.1134 0-.0566.0566-.1133.1133-.1133zm-4.4759.0849.2266.1134v.1133l.0567-.0284-.0567.0567h.0284l-.0284.0283-.2266.1133v-.1983zm.5382 0h.17v.425h-.17zm.1983.085v.2267l.17-.085v-.0567z"/><path d="m42.5193 47.4845.0283-.0284c0-.0283-.0283-.0566-.0566-.0566s-.0567.0283-.0567.0566v-.0566c0-.0567.0567-.1133.1133-.1133.0567 0 .1134.0566.1134.1133 0 .0566-.0567.1133-.1134.1133 0 0-.0283 0-.0283-.0283zm0-.5949.0283.0283c0 .0283-.0283.0566-.0566.0566s-.0567-.0283-.0567-.0566v.0566c0 .0567.0567.1134.1133.1134.0567 0 .1134-.0567.1134-.1134 0-.0566-.0567-.1133-.1134-.1133 0 0-.0283 0-.0283.0284zm-8.2436 24.3058v7.1105h8.7252v-7.1105h2.2096v16.5439h-2.2096v-7.5637h-8.7252v7.5637h-2.2096v-16.5439zm13.6544 8.102c.2549-.7649.6232-1.4165 1.1048-1.983.4816-.5666 1.1048-1.0199 1.8413-1.3315.7366-.3116 1.5581-.4816 2.4929-.4816.9632 0 1.7847.17 2.5213.4816.7082.3116 1.3314.7649 1.813 1.3315.4816.5665.8782 1.2181 1.1048 1.983.255.7648.3683 1.5864.3683 2.4645 0 .8782-.1133 1.6998-.3683 2.4646-.255.7649-.6232 1.4165-1.1048 1.983-.4816.5666-1.1048.9915-1.813 1.3315-.7082.3116-1.5581.4815-2.5213.4815-.9348 0-1.7847-.1699-2.4929-.4815-.7365-.3116-1.3314-.7649-1.8413-1.3315-.4816-.5665-.8782-1.2181-1.1048-1.983-.255-.7648-.3683-1.5864-.3683-2.4646 0-.8781.1133-1.6997.3683-2.4645zm2.0113 4.3909c.1983.5666.4532 1.0481.7932 1.4164.3399.3683.7365.6799 1.1898.8782.4532.1983.9348.3116 1.4447.3116s.9915-.1133 1.4448-.3116c.4532-.1983.8498-.4816 1.1898-.8782.3399-.3683.5949-.8498.7932-1.4164s.2833-1.2181.2833-1.9264c0-.7365-.085-1.3597-.2833-1.9263s-.4533-1.0481-.7932-1.4164c-.34-.3966-.7366-.6799-1.1898-.8782-.4533-.1983-.9349-.3116-1.4448-.3116s-.9915.1133-1.4447.3116c-.4533.1983-.8499.4816-1.1898.8782-.34.3966-.5949.8498-.7932 1.4164s-.2833 1.2181-.2833 1.9263c0 .7083.085 1.3598.2833 1.9264zm13.1444-7.932v1.7564h.0567c.9065-1.3598 2.1813-2.0397 3.881-2.0397.7365 0 1.4164.1417 2.0113.4533s1.0198.8215 1.2748 1.5864c.3966-.6516.9348-1.1615 1.5864-1.5014.6515-.3683 1.3881-.5383 2.1529-.5383.5949 0 1.1332.0567 1.6431.1983.4816.1417.9065.34 1.2464.6232.34.2833.6233.6233.8216 1.0765.1983.4533.2833.9632.2833 1.5864v8.7819h-1.983v-7.847c0-.3683-.0284-.7082-.085-1.0482-.0567-.3116-.17-.5949-.34-.8498-.1699-.2267-.3966-.425-.7082-.5666-.3116-.1417-.6799-.1983-1.1614-.1983-.9632 0-1.7281.2833-2.2947.8215-.5665.5383-.8215 1.3031-.8215 2.238v7.4504h-1.983v-7.847c0-.3966-.0283-.7366-.1133-1.0765-.0567-.3116-.1983-.5949-.3683-.8499-.1699-.2266-.3966-.4249-.6798-.5665-.2833-.1417-.6516-.1983-1.1049-.1983-.5665 0-1.0481.1133-1.473.3399-.3966.2266-.7366.5099-.9915.8215-.255.3116-.4533.6516-.5666 1.0199-.1133.3399-.17.6232-.17.8781v7.4504h-1.983v-11.9546zm26.1189 11.2181c-.9065.6799-2.0113 1.0198-3.3711 1.0198-.9632 0-1.7847-.1416-2.4929-.4532s-1.3031-.7366-1.7847-1.3031c-.4816-.5666-.8499-1.2182-1.0765-1.983-.2266-.7649-.3683-1.6148-.3966-2.5213 0-.9065.1416-1.7564.4249-2.4929.2833-.7649.6799-1.4164 1.1615-1.983.5099-.5666 1.1048-.9915 1.7847-1.3031s1.4448-.4533 2.2663-.4533c1.0765 0 1.9546.2267 2.6629.6516.7082.4533 1.2747.9915 1.6997 1.6714.4249.6799.7082 1.4164.8781 2.2379.17.7932.2267 1.5581.1984 2.2946h-8.9802c-.0283.5383.0567 1.0199.1983 1.5015.1417.4815.3683.8781.6799 1.2464s.7082.6516 1.1898.8782 1.0482.3116 1.6997.3116c.8215 0 1.5297-.1983 2.0397-.5666.5382-.3966.8781-.9631 1.0481-1.7563h1.9547c-.3116 1.3031-.9065 2.3229-1.7847 3.0028zm-.4816-7.7054c-.17-.4249-.4249-.7648-.7082-1.0764-.3116-.3117-.6516-.5383-1.0765-.7083-.3966-.1699-.8499-.2549-1.3598-.2549s-.9631.085-1.3881.2549c-.3966.17-.7648.425-1.0481.7366s-.5383.6799-.7082 1.0765c-.17.3966-.2833.8498-.3116 1.3031h6.8838c0-.4533-.1133-.9065-.2833-1.3315zm10.2266-3.0594c.3399-1.0482.8215-1.9547 1.5013-2.7762.652-.7932 1.502-1.4448 2.493-1.9264.992-.4816 2.153-.7082 3.456-.7082s2.465.2266 3.456.7082c.992.4816 1.813 1.1332 2.493 1.9264.652.7932 1.162 1.728 1.501 2.7762.34 1.0481.51 2.1246.51 3.2577 0 1.1332-.17 2.2097-.51 3.2578-.339 1.0482-.821 1.9547-1.501 2.7762-.651.7932-1.501 1.4448-2.493 1.898-.991.4816-2.153.7082-3.456.7082s-2.464-.2266-3.456-.7082c-.991-.4816-1.813-1.1048-2.493-1.898-.6515-.7932-1.1614-1.728-1.5013-2.7762-.34-1.0481-.5099-2.1246-.5099-3.2578 0-1.1331.1699-2.2096.5099-3.2577zm2.0113 5.7223c.227.8215.567 1.5298 1.02 2.1813.453.6516 1.048 1.1615 1.785 1.5581.736.3966 1.586.5949 2.606.5949.991 0 1.869-.1983 2.606-.5949s1.331-.9065 1.785-1.5581c.453-.6515.793-1.3881 1.019-2.1813.227-.8215.312-1.643.312-2.4646 0-.8215-.113-1.643-.312-2.4645-.226-.8216-.566-1.5298-1.019-2.1813-.454-.6516-1.048-1.1615-1.785-1.5581s-1.586-.5949-2.606-.5949c-.992 0-1.87.1983-2.606.5949-.737.3966-1.332.9065-1.785 1.5581-.453.6515-.793 1.3881-1.02 2.1813-.227.8215-.312 1.643-.312 2.4645 0 .8216.114 1.6431.312 2.4646zm14.221-4.4476v-1.728h2.011v-1.7847c0-.9632.284-1.6997.85-2.2096.567-.5099 1.388-.7649 2.465-.7649.198 0 .396.0283.623.0567.227.0283.453.085.623.1416v1.7281c-.17-.0567-.368-.1134-.566-.1134-.199-.0283-.397-.0283-.567-.0283-.482 0-.85.085-1.105.2833s-.396.5382-.396 1.0765v1.6714h2.323v1.728h-2.323v10.2549h-1.983v-10.2549h-1.955z"/><path d="m121.329 77.4844v-1.7281h2.012v-1.7847c0-.9631.283-1.6997.849-2.2096.567-.5099 1.388-.7649 2.465-.7649.198 0 .397.0284.623.0567.227.0283.453.085.623.1416v1.7281c-.17-.0567-.368-.1133-.566-.1133-.198-.0284-.397-.0284-.567-.0284-.481 0-.85.085-1.105.2833s-.396.5383-.396 1.0765v1.6714h2.323v1.728h-2.266v10.2549h-1.983v-10.2549h-2.012zm7.904-3.881v-2.408h1.983v2.408zm1.983 2.1529v11.983h-1.983v-11.983zm9.915 2.0963c-.482-.4249-1.162-.6232-1.983-.6232-.708 0-1.303.1416-1.785.3966-.481.255-.85.6232-1.133 1.0482-.283.4249-.482.9348-.623 1.5014-.114.5665-.199 1.1331-.199 1.7563 0 .5666.057 1.1048.199 1.6148.141.5382.34.9915.623 1.3881s.652.7365 1.076.9914c.454.255.992.3683 1.587.3683.963 0 1.728-.2549 2.294-.7649.539-.5099.879-1.2181 1.02-2.1529h2.012c-.227 1.4731-.765 2.6345-1.643 3.4277-.879.7932-2.097 1.2182-3.626 1.2182-.907 0-1.729-.1417-2.408-.4533-.709-.2833-1.304-.7082-1.757-1.2465-.481-.5382-.821-1.1898-1.076-1.9263-.227-.7365-.369-1.5581-.369-2.4646s.114-1.728.34-2.5212c.227-.7932.595-1.4731 1.049-2.0397.481-.5665 1.048-1.0481 1.784-1.3597.708-.34 1.53-.5099 2.493-.5099.68 0 1.303.0849 1.898.2549s1.133.4249 1.587.7649c.453.3399.821.7649 1.133 1.2748.283.5099.481 1.1331.566 1.8413h-2.039c-.199-.7932-.51-1.3881-1.02-1.7847zm13.484 9.1218c-.906.6799-2.011 1.0198-3.371 1.0198-.963 0-1.785-.1416-2.493-.4532s-1.303-.7366-1.785-1.3031c-.481-.5666-.849-1.2182-1.076-1.983-.227-.7649-.368-1.6148-.397-2.5213 0-.9065.142-1.7563.425-2.4929.284-.7648.68-1.4164 1.162-1.983.51-.5665 1.105-.9915 1.784-1.3031.68-.3116 1.445-.4532 2.267-.4532 1.076 0 1.954.2266 2.663.6515.708.4533 1.274.9915 1.699 1.6714s.709 1.4164.879 2.238c.17.7931.226 1.558.198 2.2946h-8.98c-.029.5382.056 1.0198.198 1.5014s.368.8782.68 1.2464c.312.3683.708.6516 1.19.8782.481.2266 1.048.3116 1.699.3116.822 0 1.53-.1983 2.04-.5665.538-.3966.878-.9632 1.048-1.7564h1.955c-.312 1.3031-.878 2.3229-1.785 3.0028zm-.453-7.7053c-.17-.425-.425-.7649-.708-1.0765-.312-.3116-.652-.5383-1.077-.7082-.396-.17-.85-.255-1.36-.255-.509 0-.963.085-1.388.255-.396.1699-.765.4249-1.048.7365s-.538.6799-.708 1.0765-.283.8498-.312 1.3031h6.884c0-.4533-.113-.9065-.283-1.3314z"/></g></svg>