<svg width="177" height="118" viewBox="0 0 177 118" fill="none" xmlns="http://www.w3.org/2000/svg">
<path d="M20.4231 29.8925H22.3777V87.6826H20.4231V29.8925Z" fill="#7F3F98"/>
<path d="M41.8111 32.527V33.6885C42.406 33.7168 42.8309 33.8301 43.0575 33.8868C42.9442 33.2069 42.4626 32.697 41.8111 32.527ZM41.1029 31.7055C41.1029 32.1021 41.0179 32.357 40.9046 32.527C40.9046 32.527 41.1029 32.4704 41.3578 32.4704C41.5278 32.4704 41.7828 32.527 41.8111 32.527C41.6978 32.357 41.6128 32.1021 41.6128 31.7055C42.491 31.7055 42.6893 32.1021 42.6893 32.442H42.8592V30.459H42.6893C42.6893 30.799 42.4626 31.1956 41.6128 31.1956C41.6128 30.3174 42.0094 30.1191 42.3493 30.1191V29.9491H40.3663V30.1191C40.7063 30.1191 41.1029 30.3457 41.1029 31.1956C40.2247 31.1956 40.0264 30.799 40.0264 30.459H39.8564V32.442H40.0264C40.0264 32.1021 40.2247 31.7055 41.1029 31.7055ZM40.9046 32.527C40.2813 32.697 39.7998 33.2352 39.6581 33.8868C39.8847 33.8301 40.3097 33.7168 40.9046 33.6885V32.527ZM41.9811 61.2804C41.9811 61.677 42.321 62.017 42.7176 62.017C43.1142 62.017 43.4541 61.677 43.4541 61.2804C43.4541 60.8838 43.1142 60.5439 42.7176 60.5439C42.2927 60.5722 41.9811 60.8838 41.9811 61.2804ZM42.3493 61.2804C42.3493 61.0821 42.5193 60.9122 42.7176 60.9122C42.9159 60.9122 43.0859 61.0821 43.0859 61.2804C43.0859 61.4787 42.9159 61.6487 42.7176 61.6487C42.491 61.6487 42.3493 61.5071 42.3493 61.2804ZM40.6496 51.6771C40.6496 51.3088 40.3663 51.0255 39.9981 51.0255H36.3154C36.0037 51.0255 35.7488 51.2805 35.7488 51.5921C35.7488 51.8187 35.9188 51.9887 36.1454 51.9887C36.372 51.9887 36.542 51.8187 36.542 51.5638C36.627 51.6488 36.712 51.7054 36.8253 51.7621C36.7686 51.9887 36.712 52.3003 36.6836 52.6686C36.627 52.5836 36.542 52.5553 36.457 52.5553C36.3154 52.5553 36.1737 52.6686 36.1737 52.8386C36.1737 52.9802 36.287 53.1218 36.457 53.1218C36.542 53.1218 36.627 53.0652 36.6836 53.0085C36.6836 53.2068 36.6836 53.4051 36.712 53.6318C36.6553 53.6034 36.5986 53.5751 36.542 53.5751C36.4003 53.5751 36.2587 53.6884 36.2587 53.8584C36.2587 54 36.372 54.1417 36.542 54.1417C36.627 54.1417 36.7403 54.085 36.7686 54C36.7686 54.0283 36.7686 54.0567 36.7969 54.085C36.8536 54.255 36.9103 54.4249 36.9669 54.5666C36.9386 54.5383 36.8819 54.5383 36.8253 54.5383C36.6836 54.5383 36.542 54.6516 36.542 54.8215C36.542 54.9632 36.6553 55.1048 36.8253 55.1048C36.9669 55.1048 37.0802 54.9915 37.1086 54.8782C37.1935 55.0482 37.3069 55.2181 37.4485 55.3881H37.3918C37.2502 55.3881 37.1086 55.5014 37.1086 55.6714C37.1086 55.8414 37.2219 55.9547 37.3918 55.9547C37.5335 55.9547 37.6751 55.8414 37.6751 55.6714V55.6431C38.1001 56.068 38.6383 56.4363 39.2898 56.6912L39.1765 57.5411C39.1765 57.5411 39.4315 57.6544 39.8281 57.7677C40.2247 57.881 40.593 57.9377 40.593 57.9377L40.6496 51.6771ZM37.3069 52.017C37.3069 52.017 37.3352 52.017 37.3635 52.0454L39.3748 56.1247C36.8819 54.9915 37.1369 52.9519 37.3069 52.017ZM39.4315 55.813L37.5901 52.102C37.7035 52.1303 37.8168 52.1303 37.9301 52.1303L39.5165 55.3315L39.4315 55.813ZM39.5448 54.9915L38.1284 52.102C38.2417 52.102 38.3267 52.0737 38.4117 52.0454L39.6015 54.4816L39.5448 54.9915ZM39.6581 54.17L38.5816 52.017C38.6666 51.9887 38.7516 51.9604 38.8366 51.9037L39.7148 53.6601L39.6581 54.17ZM39.7714 53.3485L39.0066 51.8187C39.0915 51.7621 39.1765 51.7054 39.2332 51.6488L39.8281 52.8386L39.7714 53.3485ZM39.9697 51.932L39.8847 52.5553L39.4032 51.5638C39.4598 51.5354 39.5165 51.5354 39.5731 51.5354C39.7998 51.5071 39.9981 51.7054 39.9697 51.932ZM38.2134 35.2749C38.2134 35.0483 38.4117 34.85 38.6383 34.85C38.8649 34.85 39.0632 35.0483 39.0632 35.2749C39.0632 35.5298 38.8649 35.6998 38.6383 35.6998C38.4117 35.7281 38.2134 35.5298 38.2134 35.2749ZM32.576 38.2777C32.576 38.0511 32.7743 37.8528 33.0009 37.8528C33.2559 37.8528 33.4258 38.0511 33.4258 38.2777C33.4258 38.5327 33.2275 38.7026 33.0009 38.7026C32.7743 38.7026 32.576 38.5043 32.576 38.2777ZM32.3494 37.1729C32.3494 36.9179 32.5477 36.748 32.7743 36.748C33.0009 36.748 33.1992 36.9463 33.1992 37.1729C33.1992 37.3995 33.0009 37.5978 32.7743 37.5978C32.5477 37.6261 32.3494 37.4279 32.3494 37.1729ZM32.4344 36.0681C32.4344 35.8415 32.6327 35.6432 32.8593 35.6432C33.1142 35.6432 33.2842 35.8415 33.2842 36.0681C33.2842 36.2947 33.0859 36.493 32.8593 36.493C32.6327 36.493 32.4344 36.2947 32.4344 36.0681ZM33.0292 35.1049C33.0292 34.8783 33.2275 34.68 33.4542 34.68C33.7091 34.68 33.8791 34.8783 33.8791 35.1049C33.8791 35.3315 33.6808 35.5298 33.4542 35.5298C33.2275 35.5582 33.0292 35.3599 33.0292 35.1049ZM33.9358 34.4534C33.9358 34.2267 34.1341 34.0284 34.3607 34.0284C34.5873 34.0284 34.7856 34.2267 34.7856 34.4534C34.7856 34.7083 34.5873 34.8783 34.3607 34.8783C34.1341 34.9066 33.9358 34.7083 33.9358 34.4534ZM35.0406 34.2551C35.0406 34.0284 35.2389 33.8301 35.4655 33.8301C35.7205 33.8301 35.8904 34.0284 35.8904 34.2551C35.8904 34.4817 35.6921 34.68 35.4655 34.68C35.2389 34.7083 35.0406 34.51 35.0406 34.2551ZM36.1171 34.4817C36.1171 34.2551 36.3154 34.0568 36.542 34.0568C36.7969 34.0568 36.9669 34.2551 36.9669 34.4817C36.9669 34.7083 36.7686 34.9066 36.542 34.9066C36.3154 34.9349 36.1171 34.7366 36.1171 34.4817ZM37.1652 34.9066C37.1652 34.68 37.3635 34.4817 37.5901 34.4817C37.8451 34.4817 38.0151 34.68 38.0151 34.9066C38.0151 35.1616 37.8168 35.3315 37.5901 35.3315C37.3635 35.3315 37.1652 35.1332 37.1652 34.9066ZM44.5023 35.2749C44.5023 35.0483 44.304 34.85 44.0774 34.85C43.8507 34.85 43.6524 35.0483 43.6524 35.2749C43.6524 35.5298 43.8507 35.6998 44.0774 35.6998C44.304 35.7281 44.5023 35.5298 44.5023 35.2749ZM50.1397 38.2777C50.1397 38.0511 49.9414 37.8528 49.7147 37.8528C49.4598 37.8528 49.2898 38.0511 49.2898 38.2777C49.2898 38.5327 49.4881 38.7026 49.7147 38.7026C49.9414 38.7026 50.1397 38.5043 50.1397 38.2777ZM50.3663 37.1729C50.3663 36.9179 50.168 36.748 49.9414 36.748C49.7147 36.748 49.5164 36.9463 49.5164 37.1729C49.5164 37.3995 49.7147 37.5978 49.9414 37.5978C50.168 37.6261 50.3663 37.4279 50.3663 37.1729ZM50.253 36.0681C50.253 35.8415 50.0547 35.6432 49.828 35.6432C49.5731 35.6432 49.4031 35.8415 49.4031 36.0681C49.4031 36.2947 49.6014 36.493 49.828 36.493C50.083 36.493 50.253 36.2947 50.253 36.0681ZM49.6864 35.1049C49.6864 34.8783 49.4881 34.68 49.2615 34.68C49.0349 34.68 48.8366 34.8783 48.8366 35.1049C48.8366 35.3315 49.0349 35.5298 49.2615 35.5298C49.4881 35.5582 49.6864 35.3599 49.6864 35.1049ZM48.7799 34.4534C48.7799 34.2267 48.5816 34.0284 48.355 34.0284C48.1 34.0284 47.93 34.2267 47.93 34.4534C47.93 34.7083 48.1283 34.8783 48.355 34.8783C48.5816 34.9066 48.7799 34.7083 48.7799 34.4534ZM47.6751 34.2551C47.6751 34.0284 47.4768 33.8301 47.2502 33.8301C46.9952 33.8301 46.8252 34.0284 46.8252 34.2551C46.8252 34.4817 47.0235 34.68 47.2502 34.68C47.4768 34.7083 47.6751 34.51 47.6751 34.2551ZM46.5703 34.4817C46.5703 34.2551 46.372 34.0568 46.1453 34.0568C45.8904 34.0568 45.7204 34.2551 45.7204 34.4817C45.7204 34.7083 45.9187 34.9066 46.1453 34.9066C46.4003 34.9349 46.5703 34.7366 46.5703 34.4817ZM45.5221 34.9066C45.5221 34.68 45.3238 34.4817 45.0972 34.4817C44.8706 34.4817 44.6723 34.68 44.6723 34.9066C44.6723 35.1616 44.8706 35.3315 45.0972 35.3315C45.3521 35.3315 45.5221 35.1332 45.5221 34.9066ZM45.0972 41.5355C45.0972 41.2805 44.8706 41.0539 44.6156 41.0539C44.3606 41.0539 44.134 41.2805 44.134 41.5355C44.134 41.7904 44.3606 42.0171 44.6156 42.0171C44.8706 42.0171 45.0972 41.7904 45.0972 41.5355ZM41.9527 44.425V49.9207H46.8252V44.425H41.9527ZM46.6836 49.7791H42.0944V44.595H46.6553L46.6836 49.7791Z" fill="black"/>
<path d="M42.5759 44.7649H42.2927V49.5808H46.4853V44.7649H43.8224H42.5759ZM46.202 44.9066V45.0482H46.3436V49.2975H46.202V49.4391H42.5759V49.2975H42.4343V45.0482H42.5759V44.9066H46.202Z" fill="black"/>
<path d="M46.0037 46.153L45.7771 46.3796C45.7771 46.3796 45.7488 46.3796 45.7488 46.408L45.3238 46.8046C45.1822 46.9179 45.1539 47.1162 45.2672 47.2578L45.5221 47.5978C45.5505 47.6261 45.5505 47.6544 45.5505 47.7111C45.5505 47.7394 45.5221 47.7961 45.4938 47.7961C45.4655 47.8244 45.4371 47.8244 45.3805 47.8244C45.3522 47.8244 45.2955 47.7961 45.2955 47.7677C45.2955 47.7677 45.0405 47.4278 44.9272 47.2578V46.7762L45.5221 46.2097V45.7281L45.3238 45.5298L45.5788 45.2748H44.5306L44.2757 45.5298V45.8131C44.304 45.7847 44.3607 45.7847 44.389 45.7847C44.5023 45.7847 44.6156 45.8981 44.6156 46.0114C44.6156 46.1247 44.5023 46.238 44.389 46.238C44.3607 46.238 44.304 46.238 44.2757 46.2097V46.5496H43.9074L43.4825 45.9547C43.5391 45.8981 43.5675 45.8131 43.5675 45.7281C43.5675 45.5581 43.4258 45.4448 43.2842 45.4448C43.2275 45.4448 43.1709 45.4731 43.1142 45.5015V45.983H43.1425L43.5391 46.5496L43.7374 46.8329H44.219L43.9641 47.0879H43.4542C43.4258 46.9745 43.3125 46.9179 43.1992 46.9179C43.0859 46.9179 42.9726 47.0029 42.9442 47.0879C42.9442 47.1162 42.9159 47.1445 42.9159 47.2012C42.9159 47.2578 42.9442 47.3428 42.9726 47.3711H44.134L44.3323 47.6544H43.5391L43.8507 48.0793L44.0207 48.306H43.6241C43.5958 48.1927 43.4825 48.1077 43.3408 48.1077C43.2275 48.1077 43.1142 48.1927 43.0576 48.306V48.391C43.0576 48.4759 43.0859 48.5326 43.1425 48.5893H44.5873L44.389 48.306L44.219 48.0793H44.6723L44.8422 48.306L45.0405 48.5893H45.7204V48.9009H45.6354C45.6071 48.7876 45.4938 48.7026 45.3522 48.7026C45.2105 48.7026 45.1255 48.7876 45.0689 48.9009V48.9859C45.0689 49.0708 45.0972 49.1275 45.1539 49.1842H46.0037V48.2776H45.4371L45.1539 47.9094C45.2105 47.966 45.2672 48.0227 45.3522 48.0227C45.4371 48.0227 45.5221 48.0227 45.6071 47.966C45.6921 47.9094 45.7204 47.8244 45.7488 47.7394C45.7488 47.6544 45.7488 47.5694 45.6921 47.4845L45.4371 47.1445C45.3805 47.0879 45.4088 46.9745 45.4655 46.9462L45.5788 46.8329C45.6921 46.9179 45.8337 46.9179 45.9471 46.8329C46.0037 46.7762 46.032 46.7196 46.032 46.6346L46.0037 46.153ZM42.0094 41.5355L41.3578 42.187L40.7063 41.5355L41.3578 40.8839L42.0094 41.5355ZM37.6185 41.5355C37.6185 41.2805 37.8451 41.0539 38.1001 41.0539C38.355 41.0539 38.5816 41.2805 38.5816 41.5355C38.5816 41.7904 38.355 42.0171 38.1001 42.0171C37.8451 42.0171 37.6185 41.7904 37.6185 41.5355ZM46.4853 53.8867V53.745C46.4853 53.5468 46.3437 53.4051 46.1454 53.4051H44.9272C44.9272 53.2635 44.7856 53.1218 44.6439 53.1218C44.559 53.1218 44.5023 53.1502 44.4456 53.2068L44.0774 53.5751H46.1454C46.2303 53.5751 46.287 53.6317 46.287 53.7167C46.287 53.8017 46.2303 53.8584 46.1454 53.8584H43.7374V53.5184L44.1624 53.0935H42.491L42.9159 53.5184V54.1416L42.236 53.6034C42.2927 53.5468 42.321 53.4618 42.321 53.3768C42.321 53.2068 42.1794 53.0935 42.0377 53.0935C41.9811 53.0935 41.8961 53.1218 41.8394 53.1502V53.6601L42.8876 54.5099L42.406 54.6516C42.3777 54.5382 42.2644 54.4533 42.1227 54.4533C41.9527 54.4533 41.8394 54.5949 41.8394 54.7365C41.8394 54.7932 41.8678 54.8782 41.8961 54.9065H42.491L45.0972 54.085V54.4816L44.7573 54.6232C44.7289 54.4816 44.6156 54.3966 44.474 54.3966C44.304 54.3966 44.1907 54.5382 44.1907 54.6799C44.1907 54.7365 44.219 54.8215 44.2473 54.8499H44.8989L45.2955 54.6516L45.5505 54.5382L45.4371 54.2833V54.2266H46.4003C46.4003 54.255 46.372 54.3116 46.372 54.3399C46.3437 54.3966 46.3153 54.4816 46.287 54.5382C46.2303 54.4816 46.1454 54.4533 46.0604 54.4533C45.8904 54.4533 45.7771 54.5949 45.7771 54.7365C45.7771 54.7932 45.8054 54.8782 45.8337 54.9065H46.4286C46.5136 54.7365 46.5703 54.5382 46.5986 54.4249C46.6836 54.17 46.7403 53.9433 46.7403 53.8584C46.7686 53.8867 46.4853 53.8867 46.4853 53.8867ZM43.3408 53.915L43.0576 53.6317H43.6241L43.3408 53.915ZM46.5136 51.7904C46.542 51.7337 46.542 51.7054 46.542 51.6487C46.542 51.4504 46.4003 51.3088 46.202 51.3088H44.9272C44.9272 51.1672 44.7856 51.0255 44.6439 51.0255C44.559 51.0255 44.5023 51.0538 44.4456 51.1105L44.0774 51.4788H46.2303C46.3153 51.4788 46.372 51.5354 46.372 51.6204C46.372 51.7054 46.3153 51.7621 46.2303 51.7621H43.7374V51.4221L44.1624 50.9972H42.491L42.9159 51.4221V52.0453L42.236 51.5071C42.2927 51.4504 42.321 51.3655 42.321 51.3088C42.321 51.1388 42.1794 51.0255 42.0377 51.0255C41.9811 51.0255 41.8961 51.0538 41.8394 51.0822V51.5921L42.8593 52.4136L42.3777 52.5553C42.3493 52.4419 42.236 52.357 42.0944 52.357C41.9244 52.357 41.8111 52.4986 41.8111 52.6402C41.8111 52.6969 41.8394 52.7819 41.8678 52.8385H42.4627L45.0689 52.017V52.4419L44.7289 52.5553C44.7006 52.4419 44.5873 52.357 44.4456 52.357C44.2757 52.357 44.1624 52.4986 44.1624 52.6402C44.1624 52.6969 44.1907 52.7819 44.219 52.8385H44.8706L45.5221 52.6402L45.8337 52.5269L45.5788 52.3003L45.4088 52.1303H46.5703V52.4419C46.5136 52.3853 46.4286 52.3286 46.3437 52.3286C46.1737 52.3286 46.0604 52.4703 46.0604 52.6119C46.0604 52.6686 46.0887 52.7536 46.117 52.8102H46.8536V51.7621L46.5136 51.7904ZM43.3408 51.8187L43.0576 51.5354H43.6241L43.3408 51.8187ZM45.4371 55.4731H44.9272C44.9272 55.3314 44.7856 55.1898 44.6439 55.1898C44.559 55.1898 44.5023 55.2181 44.4456 55.2748L44.0774 55.6431H45.4655C45.5505 55.6431 45.6071 55.6997 45.6071 55.7847C45.6071 55.8697 45.5505 55.9263 45.4655 55.9263H43.7941V55.6431L44.219 55.2181H42.5476L42.9726 55.6431V56.3513L42.2927 55.728C42.3493 55.6714 42.406 55.5864 42.406 55.5014C42.406 55.3314 42.2644 55.2181 42.1227 55.2181C42.0661 55.2181 41.9811 55.2465 41.9244 55.2748V55.7564L43.0009 56.7479L43.0576 56.6912L42.3777 57.5127C42.321 57.4561 42.236 57.4561 42.1794 57.4561C42.0094 57.4844 41.8961 57.6261 41.9244 57.7677C41.9244 57.8244 41.9527 57.881 41.9811 57.9377C42.0944 57.9377 42.236 57.9093 42.4627 57.881L43.2275 56.9745C43.3408 56.9462 43.4258 56.8895 43.5391 56.8612L43.8507 57.1445L43.6808 57.2295C43.5958 57.1728 43.4825 57.1445 43.3975 57.1728C43.2559 57.2295 43.1709 57.3994 43.2275 57.5411C43.2559 57.5977 43.2842 57.6261 43.3125 57.6544C43.3125 57.6544 43.4258 57.6261 43.5391 57.5694C43.6524 57.5127 43.7658 57.4844 43.7658 57.4844C43.9074 57.4278 44.0207 57.3711 44.134 57.3144V56.5496C44.3323 56.4363 44.5023 56.3229 44.6439 56.1813L44.9272 56.4363C44.8706 56.4929 44.8139 56.5212 44.7289 56.5779C44.6439 56.5212 44.5306 56.5212 44.4456 56.5779C44.389 56.6062 44.3323 56.6912 44.304 56.7479V56.8612C44.304 56.8895 44.3323 56.9462 44.3323 56.9745C44.3607 57.0312 44.4173 57.0595 44.474 57.0878C44.6156 57.0028 44.7289 56.9178 44.8706 56.8329C44.9556 56.7762 45.0689 56.6912 45.1539 56.6062L45.2388 56.5212V56.153H45.4371C45.6354 56.153 45.7771 56.0113 45.7771 55.813C45.7771 55.6431 45.6354 55.4731 45.4371 55.4731ZM43.3408 56.0113L43.0576 55.728H43.6241L43.3408 56.0113ZM40.4513 49.0425C40.4797 48.9859 40.4797 48.9575 40.4797 48.9009C40.4797 48.7026 40.338 48.5609 40.1397 48.5609H38.8649C38.8649 48.4193 38.7233 48.2776 38.5816 48.2776C38.4967 48.2776 38.44 48.306 38.3833 48.3626L38.0151 48.7309H40.168C40.253 48.7309 40.3097 48.7876 40.3097 48.8725C40.3097 48.9575 40.253 49.0142 40.168 49.0142H37.7035V48.6742L38.1284 48.2493H36.457L36.8819 48.6742V49.2975L36.2021 48.7592C36.2587 48.7026 36.287 48.6176 36.287 48.5609C36.287 48.391 36.1454 48.2776 36.0038 48.2776C35.9188 48.2776 35.8621 48.306 35.8055 48.3343V48.8442L36.8253 49.6657L36.3437 49.8074C36.3154 49.6941 36.2021 49.6091 36.0604 49.6091C35.8904 49.6091 35.7771 49.7507 35.7771 49.8924C35.7771 49.9774 35.8055 50.034 35.8338 50.0907H36.4287L39.0349 49.2691V49.6941L38.695 49.8074C38.6666 49.6941 38.5533 49.6091 38.4117 49.6091C38.2417 49.6091 38.1284 49.7507 38.1284 49.8924C38.1284 49.9774 38.1567 50.034 38.185 50.0907H38.7799L39.4315 49.8924L39.7431 49.8074L39.4882 49.5808L39.3182 49.4108H40.4797V49.7224C40.423 49.6657 40.338 49.6091 40.253 49.6091C40.0831 49.6091 39.9697 49.7507 39.9697 49.8924C39.9697 49.9774 39.9981 50.034 40.0264 50.0907H40.7629V49.0425H40.4513ZM37.2502 49.0708L36.9669 48.7876H37.5335L37.2502 49.0708ZM40.4513 47.0312C40.4797 46.9745 40.4797 46.9462 40.4797 46.8896C40.4797 46.6913 40.338 46.5496 40.1397 46.5496H38.8649C38.8649 46.408 38.7233 46.2663 38.5816 46.2663C38.4967 46.2663 38.44 46.2947 38.3833 46.3513L38.0151 46.7196H40.1397C40.2247 46.7196 40.2814 46.7762 40.2814 46.8612C40.2814 46.9462 40.2247 47.0029 40.1397 47.0029H37.6751V46.6629L38.1001 46.238H36.4287L36.8536 46.6629V47.2862L36.1737 46.7479C36.2304 46.6913 36.2587 46.6063 36.2587 46.5496C36.2587 46.3796 36.1171 46.2663 35.9754 46.2663C35.8904 46.2663 35.8338 46.2947 35.7771 46.323V46.8329L36.797 47.6544L36.3154 47.7961C36.287 47.6828 36.1737 47.5978 36.0321 47.5978C35.8621 47.5978 35.7488 47.7394 35.7488 47.8811C35.7488 47.9377 35.7771 48.0227 35.8055 48.0793H36.4004L39.0066 47.2578V47.6828L38.6666 47.7961C38.6383 47.6828 38.525 47.5978 38.3833 47.5978C38.2134 47.5978 38.1001 47.7394 38.1001 47.8811C38.1001 47.9377 38.1284 48.0227 38.1567 48.0793H38.7799L39.4315 47.8811L39.7431 47.7677L39.4882 47.5411L39.3182 47.3711H40.4797V47.6828C40.423 47.6261 40.338 47.5694 40.253 47.5694C40.0831 47.5694 39.9697 47.7111 39.9697 47.8527C39.9697 47.9094 39.9981 47.9944 40.0264 48.051H40.7629V46.9745H40.4513V47.0312ZM37.2502 47.0595L36.9669 46.7762H37.5335L37.2502 47.0595ZM40.4513 44.9915C40.4797 44.9349 40.4797 44.9066 40.4797 44.8499C40.4797 44.6516 40.338 44.51 40.1397 44.51H38.8649C38.8649 44.3683 38.7233 44.2267 38.5816 44.2267C38.4967 44.2267 38.44 44.255 38.3833 44.3117L38.0151 44.6799H40.1397C40.2247 44.6799 40.2814 44.7366 40.2814 44.8216C40.2814 44.9066 40.2247 44.9632 40.1397 44.9632H37.6751V44.6233L38.1001 44.1983H36.4287L36.8536 44.6233V45.2465L36.1737 44.7083C36.2304 44.6516 36.2587 44.5666 36.2587 44.51C36.2587 44.34 36.1171 44.2267 35.9754 44.2267C35.8904 44.2267 35.8338 44.255 35.7771 44.2833V44.7932L36.797 45.6148L36.3154 45.7564C36.287 45.6431 36.1737 45.5581 36.0321 45.5581C35.8621 45.5581 35.7488 45.6998 35.7488 45.8414C35.7488 45.9264 35.7771 45.983 35.8055 46.0397H36.4004L39.0066 45.2182V45.6431L38.6666 45.7564C38.6383 45.6431 38.525 45.5581 38.3833 45.5581C38.2134 45.5581 38.1001 45.6998 38.1001 45.8414C38.1001 45.9264 38.1284 45.983 38.1567 46.0397H38.7516L39.4032 45.8414L39.7148 45.7564L39.4598 45.5298L39.2899 45.3598H40.4513V45.6714C40.3947 45.6148 40.3097 45.5581 40.2247 45.5581C40.0547 45.5581 39.9414 45.6998 39.9414 45.8414C39.9414 45.9264 39.9697 45.983 39.9981 46.0397H40.7346V44.9632L40.4513 44.9915ZM37.2502 45.0482L36.9669 44.7649H37.5335L37.2502 45.0482ZM49.3181 50.1757C49.5165 50.119 49.6014 49.9207 49.5448 49.7507C49.5165 49.6657 49.4598 49.5808 49.3748 49.5524C49.2898 49.4958 49.2048 49.4958 49.1199 49.5241C49.0349 49.5524 48.9499 49.6091 48.9216 49.6941C48.8649 49.7791 48.8649 49.864 48.8932 49.949C48.9499 50.119 49.1482 50.204 49.3181 50.1757ZM48.3267 50.9405L48.3833 51.2521L49.5164 51.0822C49.5448 51.0822 50.6496 51.6487 50.6496 51.6487L50.5929 51.2521L49.7997 50.8555C49.8564 50.7989 50.4513 50.2606 50.4513 50.2606L50.3946 49.864L50.3663 49.8924C50.3663 49.8924 49.4881 50.7139 49.4598 50.7422C49.4598 50.7706 48.3267 50.9405 48.3267 50.9405ZM49.2048 52.0453C49.2048 52.1303 49.2332 52.2153 49.3181 52.3003C49.3748 52.357 49.4598 52.4136 49.5731 52.3853C49.6581 52.3853 49.7431 52.357 49.8281 52.272C49.8847 52.2153 49.913 52.1303 49.913 52.017C49.913 51.932 49.8847 51.847 49.7997 51.7621C49.7431 51.7054 49.6581 51.6487 49.5448 51.6487C49.3465 51.6771 49.2048 51.847 49.2048 52.0453ZM48.4116 52.6119L48.3833 52.9235C48.3833 52.9235 49.2615 53.0368 49.3181 53.0652C49.3181 53.0935 49.2898 53.3201 49.2898 53.3201V53.4618C49.2898 53.6034 49.3182 53.745 49.4031 53.8584C49.4881 53.9717 49.6298 54.0567 49.8281 54.085C50.2247 54.1416 50.5079 53.9433 50.5646 53.5468L50.6496 52.9235L48.4116 52.6119ZM50.2247 53.1785C50.2247 53.2068 50.1963 53.4901 50.1963 53.4901C50.168 53.7734 49.9414 53.7734 49.8564 53.745C49.6864 53.7167 49.5731 53.6034 49.5731 53.4618V53.4051C49.5731 53.4051 49.6014 53.1785 49.6014 53.1218C49.6581 53.0935 50.1963 53.1502 50.2247 53.1785ZM48.2133 53.8867L47.8451 54.9632L48.1567 55.0765C48.1567 55.0765 48.4116 54.3116 48.4116 54.2833C48.44 54.3116 48.9499 54.4533 49.0065 54.4816C48.9782 54.5382 48.7516 55.2181 48.7516 55.2181L49.0632 55.3314C49.0632 55.3314 49.2898 54.6232 49.3181 54.5949C49.3465 54.6232 49.8564 54.7649 49.8847 54.7932C49.8564 54.8499 49.6298 55.5581 49.6298 55.5581L49.9414 55.6714L50.3096 54.5949L48.2133 53.8867ZM47.7884 55.1615L47.6468 55.3881C47.6468 55.3881 48.8932 56.1813 49.0065 56.2663C48.8649 56.2663 46.9952 56.4363 46.9952 56.4363L46.8536 56.6629L48.7233 57.8527L48.8932 57.5977C48.8932 57.5977 47.6468 56.8045 47.5335 56.7195C47.6751 56.7195 49.5731 56.5212 49.5731 56.5212L49.7148 56.2946L47.7884 55.1615ZM47.0519 57.8244C46.8252 57.8527 46.6269 57.9093 46.4853 57.7677C46.4286 57.711 46.372 57.5411 46.5136 57.3994C46.6553 57.2578 46.8536 57.2295 47.0802 57.2578H47.1652L46.8252 56.9178C46.5986 56.9462 46.4286 57.0028 46.287 57.1728C46.1737 57.2861 46.117 57.4278 46.117 57.5694C46.117 57.7394 46.1737 57.881 46.3153 58.0227C46.5986 58.3059 46.9102 58.2493 47.1935 58.1926C47.3918 58.136 47.5618 58.1076 47.7034 58.221C47.7318 58.2776 47.7601 58.3059 47.7601 58.3626C47.7601 58.4476 47.7318 58.5042 47.6468 58.5892C47.5335 58.7025 47.3918 58.7592 47.1935 58.7309H47.1369L47.4485 59.0425C47.6184 59.0142 47.7601 58.9575 47.8734 58.8442C48.015 58.7025 48.0717 58.5609 48.0717 58.4193C48.0717 58.2776 48.015 58.1076 47.8734 57.9943C47.6184 57.711 47.3068 57.7677 47.0519 57.8244ZM45.6921 57.711L44.7573 58.3343L44.9272 58.6176C44.9272 58.6176 45.5788 58.1643 45.6354 58.136C45.6638 58.1643 45.9471 58.6176 45.9754 58.6459C45.9471 58.6742 45.3238 59.0991 45.3238 59.0991L45.4938 59.3824C45.4938 59.3824 46.117 58.9575 46.1454 58.9575C46.1737 58.9858 46.457 59.4108 46.4853 59.4674C46.457 59.4957 45.8054 59.9207 45.8054 59.9207L45.9754 60.2039L46.9102 59.5807L45.6921 57.711ZM37.5052 59.1841C37.4768 59.1558 36.6553 58.6459 36.627 58.6176C36.6553 58.5892 37.1369 57.8244 37.1369 57.8244L36.8536 57.6544V57.6827L35.6921 59.5241L35.9754 59.694C35.9754 59.694 36.457 58.9292 36.4853 58.9008C36.5137 58.9292 37.3352 59.4391 37.3635 59.4674C37.3352 59.4957 36.8536 60.2606 36.8536 60.2606L37.1369 60.4306L38.3267 58.5609L38.0434 58.3909C38.0151 58.3909 37.5335 59.1275 37.5052 59.1841ZM36.372 57.5411C36.4004 57.2578 36.287 57.0028 36.1171 56.8045C35.6355 56.2663 34.9839 56.3796 34.559 56.7479C34.304 56.9745 34.1624 57.2578 34.1624 57.5411C34.1341 57.8244 34.2474 58.0793 34.4457 58.3059C34.8423 58.7592 35.5222 58.7875 36.0038 58.3626C36.2021 58.136 36.3437 57.8527 36.372 57.5411ZM36.0321 57.5411C36.0321 57.7394 35.9188 57.966 35.7488 58.1076C35.4089 58.4193 34.9556 58.4193 34.6723 58.0793C34.5307 57.9377 34.474 57.7394 34.5023 57.5694C34.5023 57.3711 34.6157 57.1728 34.7856 57.0028C34.9556 56.8612 35.1822 56.7762 35.3805 56.7762C35.5788 56.7762 35.7488 56.8612 35.8621 57.0028C35.9754 57.1728 36.0321 57.3428 36.0321 57.5411ZM35.2106 55.6997C35.2106 55.6997 33.8508 56.3229 33.7375 56.3796C33.7941 56.2663 34.6723 54.5382 34.6723 54.5382L34.559 54.2833H34.5307L32.5477 55.2181L32.6893 55.5014C32.6893 55.5014 34.0491 54.8782 34.1624 54.8215C34.1057 54.9348 33.2276 56.6629 33.2276 56.6629L33.3409 56.8895L35.3239 55.9547L35.2106 55.6997ZM32.321 54.2266L32.406 54.5666L34.5307 54.0283L34.474 53.6884L34.4457 53.7167L32.321 54.2266ZM33.4542 52.9802C33.3692 52.9235 33.2842 52.8952 33.1992 52.9235C33.1142 52.9235 33.0293 52.9802 32.9726 53.0652C32.9159 53.1502 32.8876 53.2351 32.9159 53.3201C32.9159 53.4051 32.9726 53.4901 33.0576 53.5468C33.1426 53.6034 33.2276 53.6317 33.3125 53.6034C33.5108 53.5751 33.6242 53.4051 33.5958 53.2068C33.5675 53.0935 33.5108 53.0368 33.4542 52.9802ZM33.3125 52.1303C33.4542 51.932 33.5675 51.7621 33.7658 51.7621C33.8225 51.7621 33.8791 51.7904 33.9358 51.847C33.9924 51.9037 34.0208 51.9887 34.0208 52.0737C34.0208 52.2436 33.9074 52.4136 33.7091 52.5553L33.6525 52.6119H34.1341C34.2757 52.4419 34.3324 52.272 34.3324 52.0453C34.3324 51.9037 34.2757 51.7621 34.1907 51.6487C34.0774 51.5354 33.9074 51.4788 33.7375 51.4788C33.3409 51.4788 33.1709 51.7337 33.0009 51.9887C32.8876 52.1587 32.8026 52.3286 32.6327 52.3286C32.576 52.3286 32.5193 52.3003 32.491 52.272C32.4344 52.2153 32.406 52.1303 32.406 52.0453C32.406 51.9037 32.491 51.7337 32.6327 51.6204L32.6893 51.5921H32.2644C32.1511 51.7337 32.0944 51.8754 32.0944 52.0453C32.0944 52.2436 32.1511 52.3853 32.2644 52.4986C32.3777 52.6119 32.5193 52.6686 32.6893 52.6686C32.9726 52.6119 33.1426 52.357 33.3125 52.1303ZM33.1709 51.1955C33.4825 51.2805 33.7941 51.2238 34.0491 51.0822C34.2757 50.9405 34.4457 50.7139 34.5023 50.4306C34.559 50.1473 34.5307 49.864 34.389 49.6374C34.2474 49.3825 33.9641 49.1842 33.6525 49.1275C33.0293 48.9575 32.4344 49.2975 32.2927 49.8924C32.2644 49.9774 32.2644 50.0623 32.2644 50.1473C32.2644 50.3456 32.321 50.5156 32.406 50.6572C32.6043 50.9405 32.8593 51.1388 33.1709 51.1955ZM32.661 49.9774C32.7176 49.7791 32.831 49.6374 32.9726 49.5241C33.1426 49.4108 33.3692 49.3825 33.5958 49.4391C33.8225 49.4958 34.0208 49.6374 34.1057 49.8074C34.1907 49.9774 34.2191 50.1473 34.1907 50.3456C34.0774 50.7422 33.6808 50.9689 33.2276 50.8555C32.8026 50.7706 32.5477 50.4023 32.661 49.9774Z" fill="black"/>
<path d="M51.5278 52.1303C51.5278 49.4108 50.4796 46.8612 48.5533 44.9349C48.3266 44.7083 48.1 44.51 47.8451 44.2833V43.8867C48.2417 43.8584 48.5816 43.5185 48.5816 43.1219C48.5816 42.6969 48.2417 42.357 47.8167 42.357H47.7601L48.4966 42.0171L48.2133 41.3938L49.3181 38.8159L48.8366 38.6176L47.7034 41.2522L47.1085 41.5355L47.5051 42.3853H35.2106L35.6072 41.5355L34.9839 41.2522L33.8508 38.6176L33.3692 38.8159L34.474 41.3938L34.1907 42.0171L34.9273 42.357H34.8989C34.474 42.357 34.1341 42.6969 34.1341 43.1219C34.1341 43.5185 34.4457 43.8584 34.8423 43.8867V44.2833C34.6157 44.4816 34.3607 44.7083 34.1341 44.9349C32.2077 46.8612 31.1596 49.4108 31.1596 52.1303C31.1596 54.2266 31.7828 56.238 33.0009 57.966C34.1907 59.6374 35.8054 60.9122 37.7318 61.6204C37.7318 61.6204 37.8451 61.6487 38.0151 61.7337C38.0434 62.017 38.2134 62.2719 38.4683 62.3569C38.7516 62.4702 39.0632 62.3569 39.2332 62.1586H39.2615V65.0481C39.2615 66.1246 40.168 66.9745 41.3012 66.9745C42.4343 66.9745 43.3408 66.0963 43.3408 65.0481V63.1218L48.3266 60.7422C48.4966 60.6855 48.6383 60.6006 48.7799 60.4872C49.1765 60.119 49.2332 59.5524 48.9782 58.8159C49.4315 58.306 49.8281 57.7677 50.1397 57.1728C51.0462 55.6431 51.5278 53.915 51.5278 52.1303ZM46.2303 42.8386L47.7034 43.1502L46.2303 43.4618V42.8386ZM41.4995 58.306V50.6573H47.3351V52.102C47.3351 53.5184 47.0802 54.4816 46.7119 55.1898C46.4003 55.6997 46.032 56.1813 45.5788 56.6062L45.4938 56.6912C44.4173 57.7111 42.9726 58.2776 41.4995 58.306ZM43.2558 58.5609C43.1425 58.8159 43.0575 59.0991 43.0009 59.4108C42.4343 59.2125 41.8961 59.0142 41.3578 58.8159C42.0094 58.8442 42.6609 58.7309 43.2558 58.5609ZM41.4995 50.4023V43.9151H47.3351V50.4023H41.4995ZM43.5391 42.8386L45.0122 43.1502L43.5391 43.4618V42.8386ZM40.8196 42.8386L42.2927 43.1502L40.8196 43.4618V42.8386ZM38.0717 42.8386L39.5448 43.1502L38.0717 43.4618V42.8386ZM35.4089 42.8386L36.8819 43.1502L35.4089 43.4618V42.8386ZM35.4089 49.0142V43.9151H41.2445V50.4023H35.4089V49.0142ZM35.4089 50.6573H41.2445V58.306C40.0547 58.2776 38.8933 57.9094 37.9018 57.2295C37.8734 57.2011 37.8168 57.1728 37.7884 57.1445L37.7601 57.1162C37.7318 57.0878 37.7035 57.0878 37.6751 57.0595C37.6468 57.0312 37.6185 57.0028 37.5901 57.0028L37.5618 56.9745C36.9386 56.4929 36.4003 55.8697 36.0037 55.1615C35.6355 54.4533 35.4089 53.4901 35.4089 52.102V50.6573ZM38.185 61.2521C38.1001 61.2238 38.0151 61.1955 37.9584 61.1671C36.1454 60.4872 34.5873 59.2691 33.4825 57.6827C32.3494 56.068 31.7261 54.1417 31.7261 52.1303C31.7261 49.5524 32.7176 47.1445 34.559 45.3032C34.6723 45.1899 34.7856 45.0765 34.8989 44.9916V47.6261C34.5023 47.3428 34.0491 47.0595 34.0208 47.0312C34.0491 47.0029 34.389 46.4646 34.389 46.4646L34.1057 46.2947V46.323L33.1992 47.6828L33.4825 47.8527C33.4825 47.8527 33.8225 47.3428 33.8508 47.2862C33.8791 47.3145 34.474 47.6828 34.8989 47.9944V48.9292L33.0293 48.0794V48.1077L32.8876 48.391L34.8989 49.3258V50.459C34.7573 50.9972 34.6723 51.5638 34.6723 52.1587C34.6723 53.3768 35.0123 54.5099 35.5788 55.5014C35.9471 56.2096 36.4287 56.6912 36.8819 57.1162C37.0802 57.2861 37.2785 57.4561 37.5052 57.6261C37.5335 57.6261 37.5335 57.6544 37.5618 57.6544C37.5901 57.6827 37.6185 57.6827 37.6468 57.7111C37.6751 57.7394 37.7035 57.7394 37.7318 57.7677L37.7601 57.796C37.9301 57.9094 38.1001 58.0227 38.2984 58.1077C38.5533 58.221 38.8933 58.3909 39.2899 58.5609L38.8649 59.6091L38.6666 59.5241C38.5533 59.4674 38.4117 59.5241 38.355 59.6374C38.2984 59.7507 38.355 59.8923 38.4683 59.949L38.6666 60.034L38.185 61.2521ZM42.8876 65.0765C42.8876 65.2748 42.8309 65.4731 42.7459 65.643C42.6609 65.7847 42.5193 65.8697 42.3777 65.8697C42.1794 65.8697 42.0094 65.7563 41.9527 65.5581C41.9527 65.5297 41.9244 65.4447 41.8961 65.3031C41.9527 65.3314 42.0094 65.3314 42.066 65.3314C42.321 65.3314 42.5193 65.1331 42.5193 64.9065C42.5193 64.6515 42.321 64.4816 42.066 64.4816C41.9244 64.4816 41.8111 64.5382 41.7261 64.6232C41.5845 64.0566 41.4428 63.4334 41.4428 63.4334H41.2445C41.2445 63.4334 41.1029 64.0566 40.9612 64.6232C40.8763 64.5382 40.7629 64.4816 40.6496 64.4816C40.3947 64.4816 40.2247 64.6799 40.2247 64.9065C40.2247 65.1614 40.423 65.3314 40.6496 65.3314C40.7063 65.3314 40.7629 65.3314 40.8196 65.3031C40.7913 65.4164 40.7629 65.5297 40.7629 65.5581C40.7063 65.728 40.5363 65.8697 40.338 65.8697C40.168 65.8697 40.0264 65.7847 39.9414 65.643C39.8564 65.4731 39.8281 65.2748 39.8281 65.0765V62.3569C40.7346 62.6402 41.8677 62.9802 42.9159 63.2068L42.8876 65.0765ZM43.1142 62.6969C41.5278 62.3569 39.6865 61.762 38.61 61.3938C38.7233 61.1388 38.8933 60.6855 39.0916 60.204L39.3748 60.3173V60.3739C39.3748 60.7705 39.7148 61.1105 40.1114 61.1105C40.508 61.1105 40.8479 60.7705 40.8479 60.3739C40.8479 59.9773 40.508 59.6374 40.1114 59.6374C39.8848 59.6374 39.7148 59.7224 39.5731 59.8923L39.2615 59.7507C39.4315 59.3258 39.5731 58.9292 39.6865 58.7025C40.7629 59.1558 42.151 59.694 43.4825 60.119C44.8989 60.5439 46.032 60.7989 46.8819 60.8838C45.3805 61.6204 43.2275 62.6402 43.1142 62.6969ZM48.4683 60.0906C48.3266 60.2323 47.9867 60.3739 47.2785 60.3739C47.7601 60.034 48.185 59.6657 48.5816 59.2408C48.6949 59.6374 48.6666 59.9207 48.4683 60.0906ZM46.457 60.3173C45.7771 60.2323 44.8422 60.0057 43.6241 59.6374C43.5675 59.6091 43.5108 59.6091 43.4541 59.5807C43.5675 58.8725 43.7941 58.4193 44.1907 58.1926C44.8139 57.9094 45.3805 57.5128 45.8904 57.0312C46.3437 56.6346 46.7969 56.153 47.1369 55.4731C47.7034 54.4816 48.0434 53.3201 48.0434 52.102C48.0434 51.5354 47.9584 50.9405 47.8167 50.4023V49.3258L48.1283 50.119L48.44 50.0057C48.44 50.0057 48.1283 49.2408 48.1283 49.2125C48.185 49.1842 49.8847 48.5043 49.8847 48.5043L49.7714 48.1927H49.7431L47.8451 48.9575V48.8159L49.1198 47.0029L49.0065 46.8046H48.9782L47.8451 47.0595V44.9349C47.9584 45.0482 48.0717 45.1332 48.185 45.2465C49.998 47.0595 51.0179 49.4958 51.0179 52.0737C51.0179 53.7451 50.5929 55.4164 49.7431 56.8612C48.9499 58.306 47.8167 59.4674 46.457 60.3173ZM47.9584 48.1643L47.8451 48.3343V47.9944L47.9584 48.1643ZM47.8734 47.4278C47.93 47.4278 48.4966 47.2862 48.5816 47.2578C48.5249 47.3428 48.185 47.8244 48.1567 47.8527C48.1283 47.8244 47.9017 47.4845 47.8734 47.4278Z" fill="black"/>
<path d="M48.9499 35.8131C48.5533 35.2182 47.9017 34.9633 47.4201 34.9633C46.7402 34.9633 46.032 35.2465 45.3521 35.5298C44.5873 35.8414 43.7941 36.1531 43.0009 36.0964C43.0859 35.8131 43.1992 35.5298 43.3408 35.3032L42.8592 35.0766C42.9442 34.9066 43.0292 34.7083 43.0575 34.4817C43.0009 34.4533 42.3493 34.2267 41.3012 34.2267C40.253 34.2267 39.6581 34.4533 39.6015 34.4817C39.6298 34.7083 39.6864 34.9066 39.7998 35.0766L39.3182 35.3032C39.4598 35.5298 39.5731 35.8131 39.6581 36.0964C38.8649 36.1814 38.0717 35.8414 37.3069 35.5298C36.627 35.2465 35.9188 34.9633 35.2389 34.9633C34.7573 34.9633 34.1057 35.2182 33.7091 35.8131C33.3975 36.2947 33.1426 37.2012 33.8224 38.646V38.6176L34.8139 38.1927L34.8706 38.3627C34.559 38.5043 34.2474 38.8726 34.6156 39.7224C35.4655 39.3542 35.4938 38.8726 35.3522 38.561L35.5222 38.5043L35.9471 39.4675L36.372 40.4307L36.202 40.4873C36.0604 40.1757 35.6921 39.8641 34.8423 40.2324C35.2105 41.0822 35.8621 41.4222 36.372 41.4222C37.2502 41.4222 37.8734 40.8839 37.7884 40.3457C37.7318 39.9491 37.3635 39.8074 37.2219 39.8358C37.0519 39.8641 36.9386 40.0624 36.9669 40.1757C36.9669 40.204 36.9952 40.2324 36.9952 40.2607L36.9669 40.289C36.7403 40.2607 36.542 40.0907 36.4853 39.8641C36.4287 39.5808 36.627 39.2975 36.9103 39.2409C37.0802 39.2125 37.2502 39.2692 37.3918 39.3825L37.4485 39.2975C37.2785 39.2125 37.1652 39.0709 37.1369 38.8726C37.0519 38.4193 37.5618 37.9661 37.5901 37.9661C37.5901 37.9661 38.2417 38.1927 38.3267 38.646C38.355 38.8443 38.2983 39.0142 38.185 39.1559L38.27 39.2125C38.3267 39.0709 38.4683 38.9292 38.6666 38.9009C38.9499 38.8443 39.2332 39.0426 39.2898 39.3258C39.3465 39.5525 39.2049 39.8074 39.0066 39.8924L38.9782 39.8641V39.7791C38.9499 39.6375 38.7799 39.5241 38.61 39.5525C38.4683 39.5808 38.185 39.8358 38.27 40.2324C38.4117 40.9122 38.9782 41.3938 39.6581 41.3938C40.338 41.3938 41.0745 40.8273 41.0745 39.9774C40.083 39.9774 39.8564 40.4307 39.8564 40.8273H39.6581V38.561H39.8564C39.8564 38.9292 40.1114 39.4108 41.0745 39.4108C41.0745 38.4193 40.6213 38.1927 40.2247 38.1927V37.9944H42.4626V38.1927C42.0944 38.1927 41.6128 38.4477 41.6128 39.4108C42.6043 39.4108 42.8309 38.9576 42.8309 38.561H43.0292V40.8273H42.8876C42.8876 40.459 42.6326 39.9774 41.6694 39.9774C41.6694 40.8273 42.3777 41.3938 43.0859 41.3938C43.7657 41.3938 44.3606 40.9122 44.474 40.2324C44.5589 39.8358 44.2757 39.5525 44.134 39.5525C43.964 39.5241 43.7941 39.6375 43.7658 39.7791V39.8641L43.7374 39.8924C43.5391 39.7791 43.3975 39.5525 43.4541 39.3258C43.5108 39.0426 43.7941 38.8443 44.0774 38.9009C44.2473 38.9292 44.389 39.0426 44.474 39.2125L44.5589 39.1559C44.4456 39.0142 44.389 38.8443 44.4173 38.646C44.5023 38.1927 45.1538 37.9661 45.1538 37.9661C45.1538 37.9661 45.6921 38.4193 45.6071 38.8726C45.5788 39.0709 45.4371 39.2125 45.2955 39.2975L45.3521 39.3825C45.4655 39.2692 45.6354 39.2125 45.8337 39.2409C46.117 39.2975 46.3153 39.5808 46.2587 39.8641C46.202 40.119 46.0037 40.289 45.7771 40.289L45.7487 40.2607C45.7771 40.2324 45.7771 40.204 45.7771 40.1757C45.8054 40.0341 45.6921 39.8641 45.5221 39.8358C45.3805 39.8074 45.0122 39.9491 44.9555 40.3457C44.8706 40.8839 45.5221 41.4222 46.372 41.4222C46.8819 41.4222 47.5334 41.0822 47.9017 40.2324C47.0519 39.8641 46.6836 40.1757 46.5419 40.4873L46.372 40.4307L46.7969 39.4675L47.2218 38.5043L47.3918 38.561C47.2502 38.8726 47.2785 39.3542 48.1283 39.7224C48.4966 38.8726 48.185 38.5043 47.8734 38.3627L47.93 38.1927L48.9215 38.6176V38.646C49.5164 37.1729 49.2615 36.2947 48.9499 35.8131ZM39.8564 37.0596C39.3748 37.0596 38.9782 37.3145 38.7516 37.7111C38.4966 37.2579 37.9301 36.9746 37.3918 37.0879C36.9952 37.1729 36.6553 37.4562 36.5137 37.7961C36.287 37.4278 35.8904 37.2012 35.4372 37.2012C34.8706 37.2012 34.389 37.5695 34.219 38.0794C33.9074 37.2579 33.9074 36.578 34.219 36.0964C34.5307 35.6148 35.0689 35.4732 35.2955 35.4732C35.8904 35.4732 36.5137 35.7281 37.1652 35.9831C38.0151 36.323 38.8932 36.6913 39.8564 36.5497C39.8847 36.7196 39.9131 36.8613 39.9414 37.0312C39.9131 37.0596 39.8847 37.0596 39.8564 37.0596ZM41.3578 34.425C41.6128 34.425 41.8394 34.6233 41.8677 34.8783C41.7261 34.765 41.5561 34.68 41.3578 34.68C41.1595 34.68 40.9896 34.765 40.8479 34.8783C40.8762 34.6233 41.1029 34.425 41.3578 34.425ZM41.3578 34.9066C41.6128 34.9066 41.8394 35.1049 41.8677 35.3599C41.7261 35.2465 41.5561 35.1616 41.3578 35.1616C41.1595 35.1616 40.9896 35.2465 40.8479 35.3599C40.8762 35.1049 41.1029 34.9066 41.3578 34.9066ZM41.3578 37.7678C41.0745 37.7678 40.8479 37.5411 40.8479 37.2579C40.8479 36.9746 41.0745 36.748 41.3578 36.748C41.6411 36.748 41.8677 36.9746 41.8677 37.2579C41.8677 37.5411 41.6411 37.7678 41.3578 37.7678ZM41.8394 36.663C41.6978 36.5497 41.5278 36.493 41.3578 36.493C41.1595 36.493 41.0179 36.5497 40.8762 36.663C40.8479 36.6063 40.8479 36.5497 40.8479 36.493C40.8479 36.2097 41.0745 35.9831 41.3578 35.9831C41.6411 35.9831 41.8677 36.2097 41.8677 36.493C41.8677 36.5497 41.8677 36.6063 41.8394 36.663ZM41.8677 35.9548C41.7261 35.8414 41.5561 35.7565 41.3578 35.7565C41.1595 35.7565 40.9896 35.8414 40.8479 35.9548V35.9264C40.8479 35.6431 41.0745 35.4165 41.3578 35.4165C41.6411 35.4165 41.8677 35.6431 41.8677 35.9264V35.9548ZM48.4966 38.0794C48.3266 37.5695 47.8451 37.2012 47.2785 37.2012C46.8252 37.2012 46.4286 37.4278 46.202 37.7961C46.032 37.4562 45.7204 37.1729 45.3238 37.0879C44.7572 36.9746 44.219 37.2295 43.964 37.7111C43.7374 37.3428 43.3408 37.0596 42.8592 37.0596H42.7743C42.8026 36.9179 42.8309 36.748 42.8592 36.578C43.8224 36.7196 44.7006 36.3514 45.5504 36.0114C46.202 35.7565 46.8252 35.5015 47.4201 35.5015C47.6468 35.5015 48.185 35.6431 48.4966 36.1247C48.8082 36.578 48.8082 37.2579 48.4966 38.0794ZM44.1907 44.2833L44.304 44.51H44.4173L44.389 44.5949L44.4173 44.5383H44.4456L44.474 44.51L44.5873 44.2833H44.389H44.1907ZM42.0377 44.4816L42.0094 44.51V44.5949L41.8111 44.5666V44.425L41.6694 44.17L41.6978 44.1417L41.9527 44.2833H42.0944V44.4816L42.0377 44.4533" fill="black"/>
<path d="M42.1793 44.425C42.151 44.425 42.1227 44.3966 42.1227 44.3683C42.1227 44.34 42.151 44.3117 42.1793 44.3117C42.2077 44.3117 42.2077 44.3117 42.236 44.34H42.2643V44.2833C42.2643 44.1984 42.2077 44.1417 42.1227 44.1417C42.0377 44.1417 41.981 44.1984 41.981 44.2833C41.981 44.3683 42.0377 44.425 42.1227 44.425H42.1793ZM41.9527 44.6516C41.9527 44.6233 41.9244 44.5949 41.8961 44.5949C41.8677 44.5949 41.8394 44.6233 41.8394 44.6516C41.8394 44.6799 41.8394 44.6799 41.8677 44.7083V44.7366H41.8111C41.7261 44.7366 41.6694 44.6799 41.6694 44.5949C41.6694 44.51 41.7261 44.4533 41.8111 44.4533C41.8961 44.4533 41.9527 44.51 41.9527 44.5949V44.6516ZM42.0377 49.8924L42.0094 49.8641V49.7791L41.8111 49.8074V49.9207L41.6694 50.1757L41.6978 50.2323L41.9527 50.0623H42.0944V49.8641L42.0377 49.8924Z" fill="black"/>
<path d="M42.1793 49.9207C42.151 49.9207 42.1227 49.949 42.1227 49.9774C42.1227 50.0057 42.151 50.034 42.1793 50.034C42.2077 50.034 42.2077 50.034 42.236 50.0057H42.2643V50.0623C42.2643 50.1473 42.2077 50.204 42.1227 50.204C42.0377 50.204 41.981 50.1473 41.981 50.0623C41.981 49.9774 42.0377 49.9207 42.1227 49.9207H42.1793ZM41.9527 49.7224C41.9527 49.7507 41.9244 49.7791 41.8961 49.7791C41.8677 49.7791 41.8394 49.7507 41.8394 49.7224C41.8394 49.6941 41.8394 49.6941 41.8677 49.6658V49.6374H41.8111C41.7261 49.6374 41.6694 49.6941 41.6694 49.7791C41.6694 49.864 41.7261 49.9207 41.8111 49.9207C41.8961 49.9207 41.9527 49.864 41.9527 49.7791V49.7224ZM46.7402 49.8924L46.7686 49.864V49.7791L46.9669 49.8074V49.9207L47.1085 50.1757L47.0802 50.2323L46.8252 50.0623H46.6836V49.864L46.7402 49.8924Z" fill="black"/>
<path d="M46.5986 49.9207C46.6269 49.9207 46.6553 49.949 46.6553 49.9774C46.6553 50.0057 46.6269 50.034 46.5986 50.034C46.5703 50.034 46.5703 50.034 46.5419 50.0057H46.5136V50.0623C46.5136 50.1473 46.5703 50.204 46.6553 50.204C46.7402 50.204 46.7969 50.1473 46.7969 50.0623C46.7969 49.9774 46.7402 49.9207 46.6553 49.9207H46.5986ZM46.8252 49.7224C46.8252 49.7507 46.8536 49.7791 46.8819 49.7791C46.9102 49.7791 46.9385 49.7507 46.9385 49.7224C46.9385 49.6941 46.9385 49.6941 46.9102 49.6658V49.6374H46.9669C47.0519 49.6374 47.1085 49.6941 47.1085 49.7791C47.1085 49.864 47.0519 49.9207 46.9669 49.9207C46.8819 49.9207 46.8252 49.864 46.8252 49.7791V49.7224ZM46.7402 44.4816L46.7686 44.51V44.5949L46.9669 44.5666V44.425L47.1085 44.17L47.0802 44.1417L46.8252 44.2833H46.6836V44.4816L46.7402 44.4533" fill="black"/>
<path d="M46.5986 44.425C46.6269 44.425 46.6553 44.3966 46.6553 44.3683C46.6553 44.34 46.6269 44.3117 46.5986 44.3117C46.5703 44.3117 46.5703 44.3117 46.5419 44.34H46.5136V44.2833C46.5136 44.1984 46.5703 44.1417 46.6553 44.1417C46.7402 44.1417 46.7969 44.1984 46.7969 44.2833C46.7969 44.3683 46.7402 44.425 46.6553 44.425H46.5986ZM46.8252 44.6516C46.8252 44.6233 46.8536 44.5949 46.8819 44.5949C46.9102 44.5949 46.9385 44.6233 46.9385 44.6516C46.9385 44.6799 46.9385 44.6799 46.9102 44.7083V44.7366H46.9669C47.0519 44.7366 47.1085 44.6799 47.1085 44.5949C47.1085 44.51 47.0519 44.4533 46.9669 44.4533C46.8819 44.4533 46.8252 44.51 46.8252 44.5949V44.6516ZM44.1624 44.8216H44.5873V44.9915H44.1624V44.8216ZM44.2757 45.0199H44.5023L44.4173 45.1898H44.3607L44.2757 45.0199Z" fill="black"/>
<path d="M44.7006 44.9915L44.6723 45.0199C44.6439 45.0199 44.6156 44.9915 44.6156 44.9632C44.6156 44.9349 44.6439 44.9066 44.6723 44.9066H44.6156C44.559 44.9066 44.5023 44.9632 44.5023 45.0199C44.5023 45.0765 44.559 45.1332 44.6156 45.1332C44.6723 45.1332 44.7289 45.0765 44.7289 45.0199C44.7006 45.0199 44.7006 45.0199 44.7006 44.9915ZM44.0774 44.9915L44.1057 45.0199C44.134 45.0199 44.1624 44.9915 44.1624 44.9632C44.1624 44.9349 44.134 44.9066 44.1057 44.9066H44.1624C44.219 44.9066 44.2757 44.9632 44.2757 45.0199C44.2757 45.0765 44.219 45.1332 44.1624 45.1332C44.1057 45.1332 44.049 45.0765 44.049 45.0199C44.0774 45.0199 44.0774 45.0199 44.0774 44.9915ZM44.5873 50.0907L44.474 49.864L44.389 49.8357H44.3607H44.3323L44.304 49.864L44.1907 50.0907H44.389H44.5873ZM44.1907 49.3258H44.6156V49.4958H44.1907V49.3258Z" fill="black"/>
<path d="M44.5023 49.3541H44.2757L44.3607 49.1558H44.4173L44.5023 49.3541ZM44.0774 49.3825L44.1057 49.3541C44.134 49.3541 44.1624 49.3825 44.1624 49.4108C44.1624 49.4391 44.134 49.4675 44.1057 49.4675H44.1624C44.219 49.4675 44.2757 49.4108 44.2757 49.3541C44.2757 49.2975 44.219 49.2408 44.1624 49.2408C44.1057 49.2408 44.049 49.2975 44.049 49.3541C44.0774 49.3541 44.0774 49.3541 44.0774 49.3825ZM44.7006 49.3825L44.6723 49.3541C44.6439 49.3541 44.6156 49.3825 44.6156 49.4108C44.6156 49.4391 44.6439 49.4675 44.6723 49.4675H44.6156C44.559 49.4675 44.5023 49.4108 44.5023 49.3541C44.5023 49.2975 44.559 49.2408 44.6156 49.2408C44.6723 49.2408 44.7289 49.2975 44.7289 49.3541C44.7006 49.3541 44.7006 49.3541 44.7006 49.3825ZM46.9669 46.9745L46.7402 47.0879V47.2012L46.6836 47.1728L46.7402 47.2295H46.7119L46.7402 47.2578L46.9669 47.3711V47.1728V46.9745ZM46.2303 46.9745H46.4003V47.3995H46.2303V46.9745ZM46.2303 47.0595V47.2862L46.0604 47.2012V47.1445L46.2303 47.0595Z" fill="black"/>
<path d="M46.287 47.4845L46.2587 47.4561C46.2587 47.4278 46.287 47.3995 46.3153 47.3995C46.3437 47.3995 46.372 47.4278 46.372 47.4561V47.3995C46.372 47.3428 46.3153 47.2862 46.2587 47.2862C46.202 47.2862 46.1454 47.3428 46.1454 47.3995C46.1454 47.4561 46.202 47.5128 46.2587 47.5128L46.287 47.4845ZM46.287 46.8896L46.2587 46.9179C46.2587 46.9462 46.287 46.9745 46.3153 46.9745C46.3437 46.9745 46.372 46.9462 46.372 46.9179V46.9745C46.372 47.0312 46.3153 47.0879 46.2587 47.0879C46.202 47.0879 46.1454 47.0312 46.1454 46.9745C46.1454 46.9179 46.202 46.8612 46.2587 46.8612L46.287 46.8896ZM41.8111 46.9745L42.0377 47.0879V47.2012L42.0944 47.1728L42.0377 47.2295H42.0661L42.0377 47.2578L41.8111 47.3711V47.1728V46.9745ZM42.3493 46.9745H42.5193V47.3995H42.3493V46.9745ZM42.5476 47.0595V47.2862L42.7176 47.2012V47.1445L42.5476 47.0595Z" fill="black"/>
<path d="M42.5193 47.4845L42.5476 47.4561C42.5476 47.4278 42.5193 47.3995 42.491 47.3995C42.4627 47.3995 42.4343 47.4278 42.4343 47.4561V47.3995C42.4343 47.3428 42.491 47.2862 42.5476 47.2862C42.6043 47.2862 42.661 47.3428 42.661 47.3995C42.661 47.4561 42.6043 47.5128 42.5476 47.5128C42.5476 47.5128 42.5193 47.5128 42.5193 47.4845ZM42.5193 46.8896L42.5476 46.9179C42.5476 46.9462 42.5193 46.9745 42.491 46.9745C42.4627 46.9745 42.4343 46.9462 42.4343 46.9179V46.9745C42.4343 47.0312 42.491 47.0879 42.5476 47.0879C42.6043 47.0879 42.661 47.0312 42.661 46.9745C42.661 46.9179 42.6043 46.8612 42.5476 46.8612C42.5476 46.8612 42.5193 46.8612 42.5193 46.8896ZM34.2757 71.1954V78.3059H43.0009V71.1954H45.2105V87.7393H43.0009V80.1756H34.2757V87.7393H32.0661V71.1954H34.2757ZM47.9301 79.2974C48.185 78.5325 48.5533 77.8809 49.0349 77.3144C49.5165 76.7478 50.1397 76.2945 50.8762 75.9829C51.6128 75.6713 52.4343 75.5013 53.3691 75.5013C54.3323 75.5013 55.1538 75.6713 55.8904 75.9829C56.5986 76.2945 57.2218 76.7478 57.7034 77.3144C58.185 77.8809 58.5816 78.5325 58.8082 79.2974C59.0632 80.0622 59.1765 80.8838 59.1765 81.7619C59.1765 82.6401 59.0632 83.4617 58.8082 84.2265C58.5532 84.9914 58.185 85.643 57.7034 86.2095C57.2218 86.7761 56.5986 87.201 55.8904 87.541C55.1822 87.8526 54.3323 88.0225 53.3691 88.0225C52.4343 88.0225 51.5844 87.8526 50.8762 87.541C50.1397 87.2294 49.5448 86.7761 49.0349 86.2095C48.5533 85.643 48.1567 84.9914 47.9301 84.2265C47.6751 83.4617 47.5618 82.6401 47.5618 81.7619C47.5618 80.8838 47.6751 80.0622 47.9301 79.2974ZM49.9414 83.6883C50.1397 84.2549 50.3946 84.7364 50.7346 85.1047C51.0745 85.473 51.4711 85.7846 51.9244 85.9829C52.3776 86.1812 52.8592 86.2945 53.3691 86.2945C53.879 86.2945 54.3606 86.1812 54.8139 85.9829C55.2671 85.7846 55.6637 85.5013 56.0037 85.1047C56.3436 84.7364 56.5986 84.2549 56.7969 83.6883C56.9952 83.1217 57.0802 82.4702 57.0802 81.7619C57.0802 81.0254 56.9952 80.4022 56.7969 79.8356C56.5986 79.269 56.3436 78.7875 56.0037 78.4192C55.6637 78.0226 55.2671 77.7393 54.8139 77.541C54.3606 77.3427 53.879 77.2294 53.3691 77.2294C52.8592 77.2294 52.3776 77.3427 51.9244 77.541C51.4711 77.7393 51.0745 78.0226 50.7346 78.4192C50.3946 78.8158 50.1397 79.269 49.9414 79.8356C49.7431 80.4022 49.6581 81.0537 49.6581 81.7619C49.6581 82.4702 49.7431 83.1217 49.9414 83.6883ZM63.0858 75.7563V77.5127H63.1425C64.049 76.1529 65.3238 75.473 67.0235 75.473C67.76 75.473 68.4399 75.6147 69.0348 75.9263C69.6297 76.2379 70.0546 76.7478 70.3096 77.5127C70.7062 76.8611 71.2444 76.3512 71.896 76.0113C72.5475 75.643 73.2841 75.473 74.0489 75.473C74.6438 75.473 75.1821 75.5297 75.692 75.6713C76.1736 75.813 76.5985 76.0113 76.9384 76.2945C77.2784 76.5778 77.5617 76.9178 77.76 77.371C77.9583 77.8243 78.0433 78.3342 78.0433 78.9574V87.7393H76.0603V79.8923C76.0603 79.524 76.0319 79.1841 75.9753 78.8441C75.9186 78.5325 75.8053 78.2492 75.6353 77.9943C75.4654 77.7676 75.2387 77.5693 74.9271 77.4277C74.6155 77.286 74.2472 77.2294 73.7657 77.2294C72.8025 77.2294 72.0376 77.5127 71.471 78.0509C70.9045 78.5892 70.6495 79.354 70.6495 80.2889V87.7393H68.6665V79.8923C68.6665 79.4957 68.6382 79.1557 68.5532 78.8158C68.4965 78.5042 68.3549 78.2209 68.1849 77.9659C68.015 77.7393 67.7883 77.541 67.5051 77.3994C67.2218 77.2577 66.8535 77.2011 66.4002 77.2011C65.8337 77.2011 65.3521 77.3144 64.9272 77.541C64.5306 77.7676 64.1906 78.0509 63.9357 78.3625C63.6807 78.6741 63.4824 79.0141 63.3691 79.3824C63.2558 79.7223 63.1991 80.0056 63.1991 80.2605V87.7109H61.2161V75.7563H63.0858ZM89.2047 86.9744C88.2982 87.6543 87.1934 87.9942 85.8336 87.9942C84.8704 87.9942 84.0489 87.8526 83.3407 87.541C82.6325 87.2294 82.0376 86.8044 81.556 86.2379C81.0744 85.6713 80.7061 85.0197 80.4795 84.2549C80.2529 83.49 80.1112 82.6401 80.0829 81.7336C80.0829 80.8271 80.2245 79.9772 80.5078 79.2407C80.7911 78.4758 81.1877 77.8243 81.6693 77.2577C82.1792 76.6911 82.7741 76.2662 83.454 75.9546C84.1339 75.643 84.8988 75.5013 85.7203 75.5013C86.7968 75.5013 87.6749 75.728 88.3832 76.1529C89.0914 76.6062 89.6579 77.1444 90.0829 77.8243C90.5078 78.5042 90.7911 79.2407 90.961 80.0622C91.131 80.8554 91.1877 81.6203 91.1594 82.3568H82.1792C82.1509 82.8951 82.2359 83.3767 82.3775 83.8583C82.5192 84.3398 82.7458 84.7364 83.0574 85.1047C83.369 85.473 83.7656 85.7563 84.2472 85.9829C84.7288 86.2095 85.2954 86.2945 85.9469 86.2945C86.7684 86.2945 87.4766 86.0962 87.9866 85.7279C88.5248 85.3313 88.8647 84.7648 89.0347 83.9716H90.9894C90.6778 85.2747 90.0829 86.2945 89.2047 86.9744ZM88.7231 79.269C88.5531 78.8441 88.2982 78.5042 88.0149 78.1926C87.7033 77.8809 87.3633 77.6543 86.9384 77.4843C86.5418 77.3144 86.0885 77.2294 85.5786 77.2294C85.0687 77.2294 84.6155 77.3144 84.1905 77.4843C83.7939 77.6543 83.4257 77.9093 83.1424 78.2209C82.8591 78.5325 82.6041 78.9008 82.4342 79.2974C82.2642 79.694 82.1509 80.1472 82.1226 80.6005H89.0064C89.0064 80.1472 88.8931 79.694 88.7231 79.269ZM98.9497 76.2096C99.2896 75.1614 99.7712 74.2549 100.451 73.4334C101.103 72.6402 101.953 71.9886 102.944 71.507C103.936 71.0254 105.097 70.7988 106.4 70.7988C107.703 70.7988 108.865 71.0254 109.856 71.507C110.848 71.9886 111.669 72.6402 112.349 73.4334C113.001 74.2266 113.511 75.1614 113.85 76.2096C114.19 77.2577 114.36 78.3342 114.36 79.4673C114.36 80.6005 114.19 81.677 113.85 82.7251C113.511 83.7733 113.029 84.6798 112.349 85.5013C111.698 86.2945 110.848 86.9461 109.856 87.3993C108.865 87.8809 107.703 88.1075 106.4 88.1075C105.097 88.1075 103.936 87.8809 102.944 87.3993C101.953 86.9177 101.131 86.2945 100.451 85.5013C99.7995 84.7081 99.2896 83.7733 98.9497 82.7251C98.6097 81.677 98.4398 80.6005 98.4398 79.4673C98.4398 78.3342 98.6097 77.2577 98.9497 76.2096ZM100.961 81.9319C101.188 82.7534 101.528 83.4617 101.981 84.1132C102.434 84.7648 103.029 85.2747 103.766 85.6713C104.502 86.0679 105.352 86.2662 106.372 86.2662C107.363 86.2662 108.241 86.0679 108.978 85.6713C109.715 85.2747 110.309 84.7648 110.763 84.1132C111.216 83.4617 111.556 82.7251 111.782 81.9319C112.009 81.1104 112.094 80.2889 112.094 79.4673C112.094 78.6458 111.981 77.8243 111.782 77.0028C111.556 76.1812 111.216 75.473 110.763 74.8215C110.309 74.1699 109.715 73.66 108.978 73.2634C108.241 72.8668 107.392 72.6685 106.372 72.6685C105.38 72.6685 104.502 72.8668 103.766 73.2634C103.029 73.66 102.434 74.1699 101.981 74.8215C101.528 75.473 101.188 76.2096 100.961 77.0028C100.734 77.8243 100.649 78.6458 100.649 79.4673C100.649 80.2889 100.763 81.1104 100.961 81.9319ZM115.182 77.4843V75.7563H117.193V73.9716C117.193 73.0084 117.477 72.2719 118.043 71.762C118.61 71.2521 119.431 70.9971 120.508 70.9971C120.706 70.9971 120.904 71.0254 121.131 71.0538C121.358 71.0821 121.584 71.1388 121.754 71.1954V72.9235C121.584 72.8668 121.386 72.8101 121.188 72.8101C120.989 72.7818 120.791 72.7818 120.621 72.7818C120.139 72.7818 119.771 72.8668 119.516 73.0651C119.261 73.2634 119.12 73.6033 119.12 74.1416V75.813H121.443V77.541H119.12V87.7959H117.137V77.541H115.182V77.4843Z" fill="black"/>
<path d="M121.329 77.4844V75.7563H123.341V73.9716C123.341 73.0085 123.624 72.2719 124.19 71.762C124.757 71.2521 125.578 70.9971 126.655 70.9971C126.853 70.9971 127.052 71.0255 127.278 71.0538C127.505 71.0821 127.731 71.1388 127.901 71.1954V72.9235C127.731 72.8668 127.533 72.8102 127.335 72.8102C127.137 72.7818 126.938 72.7818 126.768 72.7818C126.287 72.7818 125.918 72.8668 125.663 73.0651C125.408 73.2634 125.267 73.6034 125.267 74.1416V75.813H127.59V77.541H125.324V87.7959H123.341V77.541H121.329V77.4844ZM129.233 73.6034V71.1954H131.216V73.6034H129.233ZM131.216 75.7563V87.7393H129.233V75.7563H131.216ZM141.131 77.8526C140.649 77.4277 139.969 77.2294 139.148 77.2294C138.44 77.2294 137.845 77.371 137.363 77.626C136.882 77.881 136.513 78.2492 136.23 78.6742C135.947 79.0991 135.748 79.609 135.607 80.1756C135.493 80.7421 135.408 81.3087 135.408 81.9319C135.408 82.4985 135.465 83.0367 135.607 83.5467C135.748 84.0849 135.947 84.5382 136.23 84.9348C136.513 85.3314 136.882 85.6713 137.306 85.9262C137.76 86.1812 138.298 86.2945 138.893 86.2945C139.856 86.2945 140.621 86.0396 141.187 85.5296C141.726 85.0197 142.066 84.3115 142.207 83.3767H144.219C143.992 84.8498 143.454 86.0112 142.576 86.8044C141.697 87.5976 140.479 88.0226 138.95 88.0226C138.043 88.0226 137.221 87.8809 136.542 87.5693C135.833 87.286 135.238 86.8611 134.785 86.3228C134.304 85.7846 133.964 85.133 133.709 84.3965C133.482 83.66 133.34 82.8384 133.34 81.9319C133.34 81.0254 133.454 80.2039 133.68 79.4107C133.907 78.6175 134.275 77.9376 134.729 77.371C135.21 76.8045 135.777 76.3229 136.513 76.0113C137.221 75.6713 138.043 75.5014 139.006 75.5014C139.686 75.5014 140.309 75.5863 140.904 75.7563C141.499 75.9263 142.037 76.1812 142.491 76.5212C142.944 76.8611 143.312 77.2861 143.624 77.796C143.907 78.3059 144.105 78.9291 144.19 79.6373H142.151C141.952 78.8441 141.641 78.2492 141.131 77.8526ZM154.615 86.9744C153.709 87.6543 152.604 87.9942 151.244 87.9942C150.281 87.9942 149.459 87.8526 148.751 87.541C148.043 87.2294 147.448 86.8044 146.966 86.2379C146.485 85.6713 146.117 85.0197 145.89 84.2549C145.663 83.49 145.522 82.6401 145.493 81.7336C145.493 80.8271 145.635 79.9773 145.918 79.2407C146.202 78.4759 146.598 77.8243 147.08 77.2577C147.59 76.6912 148.185 76.2662 148.864 75.9546C149.544 75.643 150.309 75.5014 151.131 75.5014C152.207 75.5014 153.085 75.728 153.794 76.1529C154.502 76.6062 155.068 77.1444 155.493 77.8243C155.918 78.5042 156.202 79.2407 156.372 80.0623C156.542 80.8554 156.598 81.6203 156.57 82.3569H147.59C147.561 82.8951 147.646 83.3767 147.788 83.8583C147.93 84.3399 148.156 84.7365 148.468 85.1047C148.78 85.473 149.176 85.7563 149.658 85.9829C150.139 86.2095 150.706 86.2945 151.357 86.2945C152.179 86.2945 152.887 86.0962 153.397 85.728C153.935 85.3314 154.275 84.7648 154.445 83.9716H156.4C156.088 85.2747 155.522 86.2945 154.615 86.9744ZM154.162 79.2691C153.992 78.8441 153.737 78.5042 153.454 78.1926C153.142 77.881 152.802 77.6543 152.377 77.4844C151.981 77.3144 151.527 77.2294 151.017 77.2294C150.508 77.2294 150.054 77.3144 149.629 77.4844C149.233 77.6543 148.864 77.9093 148.581 78.2209C148.298 78.5325 148.043 78.9008 147.873 79.2974C147.703 79.694 147.59 80.1472 147.561 80.6005H154.445C154.445 80.1472 154.332 79.694 154.162 79.2691Z" fill="black"/>
</svg>
