<svg fill="none" height="60" viewBox="0 0 118 60" width="118" xmlns="http://www.w3.org/2000/svg" xmlns:xlink="http://www.w3.org/1999/xlink"><clipPath id="a"><path d="m0 0h118v60h-118z"/></clipPath><g clip-path="url(#a)"><path d="m0 7.88556c0-4.3451 3.0094-7.88556 7.86667-7.88556 5.12123 0 7.84023 3.72821 7.84023 8.07331 0 4.80109-3.4581 7.72459-7.81383 7.72459-4.72528 0-7.89307-3.2722-7.89307-7.91234z" fill="#18adb7"/><path d="m.0527954 22.3692c0-.7241.3959736-1.2606 1.2143146-1.2606h13.25189c.7128 0 1.1615.5633 1.1615 1.2606v20.6527c0 3.5136 1.9799 7.6174 8.0779 7.6174 5.9396 0 9.0018-3.7551 9.0018-11.3992v-1.6093l6.3092 12.177.8183 4.1305s-6.1772 6.0617-17.37 6.0617c-5.57 0-22.4385064-.9388-22.4385064-19.6871v-17.9437z" fill="#18adb7"/><path d="m80.6465 37.1748-8.8962-4.506s1.6895 2.8162 1.6895 6.3835c0 7.0004-5.5172 11.5065-13.3575 11.5065-8.5794 0-11.9056-5.3375-11.9056-12.3111v-2.8968c0-.0804 0-.1341 0-.2146v-4.962s2.1647.8315 4.2766.8315h8.0778c.792 0 1.0823-.5364 1.0823-1.2338v-7.3223c0-.8315-.3431-1.3411-1.2143-1.3411h-12.196v-12.25746c0-2.03844-.7655-4.77425-7.629-4.77425-6.3092 0-7.8139 2.06526-7.8139 4.42557v29.58424c0 10.3264 7.1011 15.8516 7.1011 15.8516s5.9396 6.0081 18.9539 6.0081c16.6837 0 22.5969-11.8016 22.5969-11.8016z" fill="#1d2232"/><path d="m117.023 22.7984-6.758-2.1189c-1.082-.2951-1.821-.0537-2.085.8851 0 0-3.986 13.7863-10.2426 25.3464-9.8466-18.3996-13.7007-24.1394-13.7007-24.1394-.9503-1.6093-2.2966-2.414-3.8277-2.414-2.2967 0-5.1213 1.1533-5.9132 1.663-3.643 2.3066-4.6989 3.8355-4.7253 5.9275 0 1.4216.4751 2.1458 1.1087 3.3527l10.5065 16.844 5.0685 7.7783c1.6102 2.4408 3.2205 4.0233 7.8138 4.0233 5.702 0 7.444-2.1726 9.134-4.7207 0 0 8.79-13.679 14.413-30.2816.449-1.502.027-1.8507-.792-2.1457z" fill="#6e7d81"/></g></svg>