<svg fill="none" height="50" viewBox="0 0 121 50" width="121" xmlns="http://www.w3.org/2000/svg" xmlns:xlink="http://www.w3.org/1999/xlink"><clipPath id="a"><path d="m0 0h121v50h-121z"/></clipPath><g clip-path="url(#a)"><path d="m121 0h-121v50h121z" fill="#005eb8"/><g fill="#fff"><path d="m11.8271 4.82501h13.1615l8.0684 27.91249h.1224l5.534-27.91249h9.9416l-8.3622 40.24999h-13.1004l-8.252-27.85h-.1102l-5.4727 27.85h-9.94161z"/><path d="m52.5361 4.82501h10.566l-3.1098 15.39999h12.4882l3.1098-15.39999h10.566l-8.1908 40.24999h-10.6272l3.5016-17.2375h-12.427l-3.5016 17.2375h-10.5537z"/><path d="m113.936 13.9375c-2.708-1.2729-5.662-1.9053-8.643-1.85-4.175 0-7.5667.6375-7.5667 3.8625 0 5.7125 15.3037 3.575 15.3037 15.8 0 11.125-10.113 14.0125-19.2583 14.0125-4.1566-.0986-8.2785-.7972-12.2434-2.075l2.4487-8.1875c2.0936 1.3875 6.2686 2.3125 9.709 2.3125 3.4403 0 8.411-.6375 8.411-4.7875 0-6.4625-15.304-4.0375-15.304-15.4 0-10.375 8.9254-13.5 17.569-13.5 4.897 0 9.428.525 12.084 1.7875z"/></g></g></svg>