<svg fill="none" height="77" viewBox="0 0 99 77" width="99" xmlns="http://www.w3.org/2000/svg" xmlns:xlink="http://www.w3.org/1999/xlink"><clipPath id="a"><path d="m0 0h99v77h-99z"/></clipPath><g clip-path="url(#a)"><path clip-rule="evenodd" d="m97.6334 58.6689c-1.9145 2.4269-6.6051 4.1582-6.6051 4.1582l-34.8931 12.5929v-9.287l25.679-9.1931c2.914-1.049 3.3615-2.532.9928-3.3104-2.3642-.7807-6.6451-.557-9.5614.4965l-17.1104 6.055v-9.6383l.9862-.3355s4.9444-1.7581 11.8967-2.532c6.9524-.7694 15.4652.1051 22.1482 2.6506 7.5312 2.3911 8.3794 5.9162 6.4671 8.3431zm-38.1767-15.8139v-23.75c0-2.7892-.512-5.357-3.1167-6.084-1.9946-.6419-3.2324 1.219-3.2324 4.0061v59.4755l-15.9639-5.0908v-70.914444c6.7876 1.266014 16.6763 4.258804 21.9924 6.059404 13.5196 4.66364 18.1033 10.46804 18.1033 23.54644 0 12.7473-7.8317 17.5787-17.7827 12.7518zm-51.60501 22.3072c-7.731512-2.1875-9.01824-6.746-5.49421-9.372 3.2569-2.4247 8.79562-4.2499 8.79562-4.2499l22.8895-8.1776v9.3229l-16.4714 5.9229c-2.9096 1.0491-3.3571 2.5343-.9929 3.3127 2.3664.7784 6.6496.5569 9.5637-.4944l7.9006-2.8809v8.3409c-.5008.0895-1.0596.1789-1.5761.2662-7.9029 1.2973-16.3201.756-24.61481-1.9908zm84.69711 3.6929c.9995 0 1.9368.3892 2.6425 1.1072.7057.7069 1.0952 1.6508 1.0952 2.6528 0 1.0066-.3895 1.946-1.0952 2.6528-.7057.7136-1.643 1.1028-2.6425 1.1028-.9996 0-1.9346-.3892-2.6425-1.1028-.7057-.7068-1.093-1.6462-1.093-2.6528 0-2.0712 1.674-3.76 3.7355-3.76zm-3.1078 3.76c0 .8344.3228 1.6195.9106 2.2055.5854.595 1.369.9171 2.1972.9171 1.7164 0 3.1077-1.4002 3.1077-3.1226 0-.8365-.3205-1.6216-.9105-2.2099-.5855-.595-1.3691-.9148-2.1972-.9148-.8282 0-1.6118.3198-2.1972.9148-.5878.5883-.9106 1.3734-.9106 2.2099zm4.2365-2.0242c.4096.1812.6166.5301.6166 1.0266 0 .255-.0534.4698-.1625.6375-.0779.1208-.1892.2192-.3139.3042.0979.0582.1848.1275.2493.208.0891.1164.1403.302.147.5548l.02.5345c.0067.1432.0156.2528.0379.3199.0223.0984.0645.1611.118.1812l.0556.0268v.0604.0917.0918h-.0913-.6611-.0535l-.0267-.047c-.0223-.0447-.0378-.0962-.0534-.1633-.0111-.0604-.0223-.1655-.029-.3266l-.0334-.6643c-.0089-.2304-.0868-.3735-.2337-.4496-.0913-.0424-.2427-.0626-.4475-.0626h-1.1331v1.6217.0917h-.0935-.5388-.0912v-.0917-3.9971-.0917h.0912 1.8411c.3161 0 .581.0469.7859.1431zm-1.9947 1.6843h1.1532c.2315 0 .4163-.0426.5476-.1298.1202-.0872.1781-.246.1781-.4764 0-.2505-.0824-.4138-.256-.501-.0957-.047-.2293-.0738-.3985-.0738h-1.2244z" fill="#1f1f1f" fill-rule="evenodd"/></g></svg>