<svg width="92" height="92" viewBox="0 0 92 92" fill="none" xmlns="http://www.w3.org/2000/svg">
<g clip-path="url(#clip0_16_35)">
<path d="M46.003 92.006C71.4097 92.006 92.006 71.4097 92.006 46.003C92.006 20.5962 71.4097 0 46.003 0C20.5962 0 0 20.5962 0 46.003C0 71.4097 20.5962 92.006 46.003 92.006Z" fill="#00AFAB"/>
<path d="M34.5365 42.9532C34.0242 40.2727 33.3988 37.6339 32.815 34.9832C32.7171 34.6002 32.5937 34.2241 32.4457 33.8575C32.3701 33.6423 32.2123 33.4657 32.007 33.3664C31.8017 33.2671 31.5654 33.253 31.3497 33.3273C30.88 33.551 30.4624 33.8707 30.1238 34.2657C29.7853 34.6607 29.5332 35.1222 29.384 35.6206C29.0038 36.6889 28.8893 37.8338 29.0504 38.9563C29.253 41.1245 29.521 43.2749 29.7295 45.4371C29.9559 47.8734 30.1882 50.3037 30.3252 52.7518C30.445 54.1346 30.3465 55.5276 30.0333 56.8798C29.7236 58.0711 28.9849 58.3808 28.419 58.0711C28.6672 57.9764 28.8926 57.8302 29.0802 57.6422C29.1855 57.5306 29.2518 57.3877 29.269 57.2352C29.2862 57.0827 29.2534 56.9287 29.1755 56.7964C28.0396 54.7513 27.0753 52.6155 26.2925 50.4109C25.2978 47.8555 24.3805 45.2763 23.4036 42.7149C23.0283 41.7381 22.9985 40.7671 21.8489 40.5348C21.5239 40.4745 21.1898 40.4848 20.8691 40.5649C20.5484 40.6451 20.2488 40.7933 19.9904 40.9994C19.5973 41.2854 19.7521 41.7619 19.6985 42.1908C19.6926 42.2661 19.6926 42.3418 19.6985 42.4171C19.6985 43.6799 19.7641 44.9367 19.7402 46.1996C19.7402 47.5874 19.6509 48.9753 19.5258 50.3692C19.4517 51.0581 19.2833 51.7335 19.0254 52.3766C19.0254 52.3766 18.2154 54.1933 16.8811 54.1636C16.87 54.1636 16.8594 54.1592 16.8516 54.1513C16.8438 54.1435 16.8394 54.1329 16.8394 54.1219C16.8394 54.1108 16.8438 54.1002 16.8516 54.0924C16.8594 54.0845 16.87 54.0801 16.8811 54.0801C17.1351 53.993 17.3669 53.8514 17.5604 53.6651C17.7538 53.4789 17.9042 53.2525 18.0009 53.002C18.0035 52.9862 18.0026 52.9701 17.9984 52.9546C17.9943 52.9392 17.9869 52.9248 17.9768 52.9124C17.9666 52.9 17.954 52.8899 17.9397 52.8828C17.9253 52.8756 17.9097 52.8716 17.8937 52.871C17.5794 52.8946 17.2663 52.8106 17.0061 52.6327C13.5453 50.119 14.0278 43.4774 13.0986 39.7307C12.9476 38.8909 12.5298 38.1222 11.9073 37.5386C11.5923 37.24 11.2158 37.0138 10.8043 36.876C10.3927 36.7381 9.95594 36.6918 9.52462 36.7404C9.30662 36.7424 9.0971 36.8251 8.93648 36.9725C8.77587 37.1199 8.67559 37.3216 8.65498 37.5386C8.61839 37.8529 8.60844 38.1697 8.6252 38.4857C8.79794 40.5705 8.9409 42.6554 9.22086 44.7402C9.48376 46.8112 9.96083 48.8494 10.6445 50.8219C11.1521 52.5059 12.0177 54.0604 13.182 55.3787C15.4932 57.8269 18.7991 57.1657 20.4193 54.7473C21.4319 53.2283 21.6702 51.495 21.7238 49.7199L21.7774 48.0402H21.9085C21.968 48.1891 22.0395 48.3261 22.0872 48.475C22.6828 50.2262 23.2189 51.9834 23.8324 53.7228C24.1739 54.6957 24.5274 55.6587 24.8927 56.6117L25.1965 57.4278C25.6158 58.9628 26.4951 60.3327 27.7162 61.3532C30.0988 63.4618 33.4345 62.4433 34.7152 58.1843C35.3333 55.9179 35.5807 53.5664 35.4478 51.221C35.3807 48.4625 35.0938 45.7138 34.5901 43.0009M82.7613 41.1066C81.6537 41.1243 80.5566 41.3256 79.5149 41.7023C79.2528 41.7917 78.9967 41.887 78.7406 41.9942C78.4844 42.1014 78.2402 42.2086 77.996 42.3278C77.5016 42.566 77.0251 42.8221 76.5605 43.1021C75.757 43.5942 74.9887 44.1415 74.2612 44.7402C74.1242 44.4543 73.9872 44.1743 73.8561 43.8884C73.3975 42.9353 72.915 41.9942 72.3789 41.0709L72.3074 40.9458C72.1882 40.7333 71.9987 40.569 71.7716 40.4811C71.5444 40.3932 71.2937 40.3871 71.0625 40.4639C70.8313 40.5407 70.6341 40.6956 70.5048 40.9021C70.3754 41.1085 70.3219 41.3536 70.3536 41.5951C70.4072 41.9704 70.4072 42.3515 70.3536 42.7268C70.3199 42.9123 70.2742 43.0954 70.2166 43.2749C70.158 43.4497 70.0843 43.6191 69.9962 43.7812C69.832 44.0982 69.6166 44.3859 69.3589 44.633C69.1282 44.8606 68.8522 45.0372 68.5488 45.1512C68.3009 45.2483 68.0319 45.2791 67.7685 45.2405C67.5463 45.2016 67.3397 45.1004 67.1728 44.9487C67.1482 44.9321 67.1262 44.912 67.1073 44.8891H67.0716L67.012 44.8236L66.9762 44.7819C66.8001 44.5553 66.6577 44.3046 66.5533 44.0373C66.5007 43.9033 66.4569 43.766 66.4223 43.6263C66.385 43.4836 66.3591 43.3382 66.3448 43.1915C66.333 43.0428 66.333 42.8934 66.3448 42.7447C66.3461 42.4512 66.3841 42.1591 66.458 41.875C66.4938 41.7321 66.5414 41.601 66.5891 41.464C66.641 41.3344 66.7027 41.209 66.7737 41.0888C66.8422 40.9697 66.9198 40.8562 67.006 40.7492C67.0464 40.693 67.0902 40.6393 67.1371 40.5884L67.2086 40.511L67.28 40.4395L67.4409 40.3025L67.5659 40.1953L67.7208 40.1059L67.7923 40.0642H67.7506L67.8459 40.0106L67.9352 39.963C68.0539 39.9013 68.1774 39.8495 68.3046 39.8081C68.4308 39.7697 68.5605 39.7438 68.6917 39.7307C69.0012 39.7024 69.3132 39.7368 69.6091 39.8319C69.7833 39.888 69.9543 39.9536 70.1213 40.0285L70.3775 40.1595L70.5025 40.231L70.6157 40.2906L70.9195 40.3918C71.0445 40.4354 71.1798 40.4404 71.3077 40.4062C71.4356 40.372 71.5503 40.3002 71.6369 40.2001C71.7235 40.1 71.7781 39.9762 71.7936 39.8447C71.8091 39.7132 71.7847 39.5801 71.7237 39.4626C71.682 39.3792 71.6581 39.3197 71.6224 39.2541L71.5152 39.0754C71.444 38.9548 71.3644 38.8394 71.2769 38.73C71.1025 38.4998 70.9027 38.29 70.6813 38.1045C70.2147 37.6927 69.6575 37.3968 69.0551 37.2408C68.413 37.0861 67.7434 37.0861 67.1013 37.2408L66.8631 37.3004L66.6367 37.3659L66.2436 37.5089C66.0947 37.5744 65.916 37.6577 65.773 37.7352C65.6301 37.8126 65.499 37.8901 65.3679 37.9794L65.1714 38.1164L64.9808 38.2653C64.8557 38.3666 64.7366 38.4738 64.6174 38.587C64.4001 38.8132 64.2009 39.0562 64.0218 39.3137C63.6561 39.831 63.3821 40.4072 63.2116 41.0173C63.0436 41.5975 62.9673 42.2005 62.9853 42.8043C62.7887 43.1676 62.5862 43.531 62.3896 43.8943C62.2467 44.1326 62.1037 44.3709 61.9548 44.6091C61.8655 44.4185 61.7702 44.2339 61.6749 44.0492C61.5796 43.8646 61.4247 43.531 61.2877 43.2749C61.1507 43.0187 61.0316 42.7566 60.8946 42.5005C60.6325 41.9882 60.3465 41.4819 60.0606 40.9756L59.9772 40.8326C59.8396 40.5643 59.611 40.3537 59.3322 40.2386C59.0534 40.1236 58.7428 40.1116 58.456 40.2048C58.1692 40.298 57.925 40.4903 57.7671 40.7473C57.6092 41.0043 57.5481 41.309 57.5946 41.607C57.6601 42.0493 57.6601 42.499 57.5946 42.9413C57.5633 43.1596 57.5135 43.3748 57.4456 43.5846C57.3754 43.7884 57.2919 43.9874 57.1955 44.1803C57.0062 44.5576 56.7567 44.9017 56.4569 45.1988C56.1878 45.4752 55.8683 45.6976 55.5157 45.8541C55.2195 45.9822 54.8962 46.0354 54.5745 46.0089C54.3127 45.9801 54.0646 45.8768 53.8598 45.7111C53.8053 45.671 53.7535 45.6272 53.7049 45.5801L53.6453 45.5145L53.5738 45.4431L53.5381 45.4073L53.4964 45.3597L53.419 45.2584L53.276 45.0499C53.0935 44.7587 52.9512 44.4441 52.8531 44.1147C52.8023 43.9443 52.7606 43.7713 52.728 43.5965C52.6982 43.4178 52.6744 43.2391 52.6625 43.0604C52.6506 42.8817 52.6625 42.703 52.6625 42.5243C52.6712 42.3508 52.6891 42.1778 52.7161 42.0061C52.7736 41.6783 52.8696 41.3584 53.002 41.053C53.0735 40.9101 53.145 40.779 53.2224 40.6539C53.3056 40.5307 53.3971 40.4132 53.4964 40.3025C53.5954 40.1907 53.7051 40.089 53.824 39.9987C53.883 39.9497 53.9447 39.904 54.0087 39.8617L54.098 39.8021H54.1338H54.1695H54.2172H54.2589H54.2291L54.2827 39.7724L54.378 39.7187L54.5924 39.6294C54.7418 39.5682 54.8977 39.5242 55.057 39.4984C55.4377 39.4354 55.826 39.4354 56.2067 39.4984C56.428 39.5259 56.647 39.5698 56.8619 39.6294L57.2014 39.7187L57.3682 39.7724C57.4187 39.7886 57.4705 39.8006 57.5231 39.8081L57.9162 39.8498C58.1109 39.8679 58.3055 39.815 58.4642 39.7009C58.6359 39.5757 58.7511 39.3877 58.7846 39.1778C58.8181 38.968 58.7671 38.7534 58.6429 38.581C58.5834 38.4917 58.5417 38.4262 58.4881 38.3607L58.3332 38.1641C58.2302 38.0393 58.1209 37.9201 58.0056 37.8067C57.767 37.5757 57.5101 37.3645 57.2372 37.1753C56.6231 36.7535 55.9239 36.4719 55.1889 36.3504C54.4539 36.229 53.7012 36.2706 52.9841 36.4724H52.9305H52.871L52.722 36.52L52.4421 36.6213C52.2634 36.6928 52.0847 36.7702 51.912 36.8596C51.5648 37.0403 51.2357 37.2537 50.9291 37.4969C50.3259 37.9916 49.8243 38.5985 49.4519 39.2839C49.2692 39.6142 49.1138 39.9588 48.9872 40.3144C48.8694 40.6645 48.7779 41.0229 48.7133 41.3866C48.5883 42.0987 48.5702 42.8255 48.6596 43.5429C48.7021 43.8991 48.7718 44.2516 48.8681 44.5972C48.9645 44.9459 49.088 45.2864 49.2374 45.6158C49.5302 46.2873 49.9328 46.9053 50.4288 47.4445C50.5539 47.5815 50.6908 47.7125 50.8278 47.8376L50.9827 47.9687C50.8246 48.2267 50.6152 48.4496 50.3676 48.6236C50.12 48.7977 49.8393 48.9191 49.543 48.9805C49.2466 49.0419 48.9408 49.0419 48.6444 48.9806C48.3481 48.9193 48.0674 48.7979 47.8198 48.6239C46.6761 47.7185 46.7058 45.6456 46.4974 43.9956C46.2055 41.6904 43.9718 42.3992 44.1147 43.9539C44.2577 45.5086 43.5191 50.4645 41.2615 49.8212C40.7254 49.6663 40.1893 48.9575 40.0404 47.2003C39.7485 43.9003 41.6249 40.9935 43.7394 41.9823C43.8734 42.07 44.0247 42.1277 44.1831 42.1514C44.3415 42.175 44.5031 42.1641 44.6568 42.1193C44.7576 42.0532 44.8308 41.9525 44.8626 41.8362C44.8944 41.72 44.8827 41.5961 44.8295 41.4879C44.6608 41.1371 44.4119 40.831 44.1028 40.5944C43.6025 40.2028 43.0022 39.9595 42.3704 39.8921C41.7386 39.8247 41.1006 39.9359 40.5289 40.2132C39.5553 40.6075 38.6853 41.2202 37.9861 42.0041C37.2869 42.788 36.7771 43.7221 36.4962 44.7342C36.1625 45.7885 36.0769 46.9056 36.246 47.9985C36.3857 48.913 36.7209 49.7866 37.2289 50.5598C37.68 51.2344 38.2948 51.7836 39.0159 52.1562C39.6615 52.5069 40.4048 52.6346 41.1304 52.5195C41.7569 52.413 42.3525 52.1711 42.8758 51.8107C43.2828 51.5252 43.6442 51.1798 43.948 50.7862C44.2648 50.3874 44.4997 49.9299 44.6389 49.44C44.9396 50.1106 45.4072 50.6931 45.997 51.1317C47.9151 52.3587 50.4049 51.3759 51.4175 49.9939C51.7114 49.6027 51.963 49.1814 52.1681 48.7371L52.3051 48.8026C52.6869 48.9638 53.087 49.0778 53.4964 49.1421C53.8919 49.1931 54.2922 49.1931 54.6877 49.1421C55.4457 49.047 56.1725 48.7823 56.8142 48.3678C57.3983 47.9913 57.9157 47.5203 58.3451 46.9739C58.6007 46.6506 58.8279 46.3059 59.0242 45.9434C59.1155 46.2373 59.1989 46.5291 59.2743 46.819C59.3815 47.2419 59.4828 47.6589 59.5841 48.0819L58.6132 49.4459L58.1307 50.1428L57.8864 50.4943L57.6422 50.8636C57.4695 51.1197 57.3325 51.3461 57.1776 51.5843L56.9393 51.9775L56.719 52.3706C56.1304 53.4142 55.6322 54.5063 55.2298 55.6349C54.811 56.7896 54.5271 57.9889 54.3839 59.2088C54.3131 59.8535 54.2932 60.5028 54.3244 61.1507C54.3244 61.3174 54.3542 61.4842 54.3661 61.651C54.378 61.8178 54.4018 61.9846 54.4316 62.1573L54.4733 62.4075C54.4733 62.4969 54.515 62.5922 54.5328 62.6815C54.5805 62.89 54.6103 62.9972 54.646 63.1342V63.1997V63.2772C54.6592 63.3257 54.6751 63.3734 54.6937 63.4202C54.6937 63.5155 54.7592 63.6108 54.7949 63.7061C54.8713 63.8957 54.9589 64.0807 55.057 64.26C55.2588 64.6337 55.5048 64.9817 55.7897 65.2965C56.0969 65.6304 56.4499 65.9192 56.8381 66.1542C57.2522 66.3975 57.7027 66.5724 58.1724 66.6725C58.412 66.7205 58.6549 66.7504 58.8991 66.7618H59.4113H59.5602C59.9652 66.7214 60.3646 66.6375 60.7516 66.5116C61.1478 66.3816 61.5292 66.2099 61.8893 65.9994C62.2467 65.7876 62.5802 65.538 62.884 65.2548C63.1886 64.9774 63.4622 64.6678 63.7001 64.3315L63.7835 64.2064L63.8788 64.0575L63.9741 63.9086L64.0158 63.8371L64.0456 63.7835L64.1468 63.5989L64.1826 63.5333V63.4738L64.2422 63.3546C64.5399 62.7395 64.7715 62.0946 64.9331 61.4306C66.0589 56.7368 64.6174 51.1853 62.8245 46.9144C63.0747 46.4557 63.3189 45.9911 63.5512 45.5265C63.7245 45.8197 63.9239 46.0969 64.1468 46.3544C64.3515 46.5959 64.5767 46.8191 64.8199 47.0216L65.0225 47.1824L65.1952 47.3075L65.3144 47.3849L65.4216 47.4564L65.6479 47.5815C66.2709 47.9019 66.9676 48.0519 67.6672 48.0163C68.3236 47.9691 68.9589 47.7648 69.5197 47.4207C70.0308 47.117 70.4844 46.7259 70.86 46.2651C71.0406 46.0465 71.2058 45.8156 71.3544 45.5741C71.408 45.4907 71.4556 45.4014 71.5033 45.312C71.6701 45.866 71.8249 46.4259 71.9619 46.9858C71.819 47.1347 71.676 47.2896 71.539 47.4445C71.1757 47.8496 70.8242 48.2665 70.4907 48.7073C70.3239 48.9277 70.163 49.16 70.0022 49.3983L69.7639 49.7735L69.5495 50.1369C68.9867 51.099 68.516 52.1122 68.1437 53.1628C67.747 54.2499 67.4888 55.3826 67.3753 56.5343C67.3189 57.1445 67.3189 57.7587 67.3753 58.3689C67.3753 58.5298 67.4111 58.6846 67.4409 58.8454L67.4826 59.0837L67.5421 59.3518L67.5957 59.5662V59.6556V59.7032L67.6255 59.8104C67.6856 59.9954 67.7572 60.1765 67.84 60.3525C68.176 61.1211 68.7287 61.7751 69.4304 62.2348C69.8218 62.4873 70.2557 62.6669 70.711 62.7649C70.8252 62.7886 70.9406 62.8065 71.0565 62.8185H71.2352H71.7475H72.0394C73.224 62.6697 74.3153 62.0987 75.113 61.2102L75.3036 60.9839C75.3632 60.9065 75.4227 60.835 75.4763 60.7516C75.53 60.6682 75.5835 60.6027 75.6431 60.5014L75.7265 60.3585C75.753 60.3183 75.7769 60.2765 75.798 60.2333C76.0975 59.6655 76.3333 59.0661 76.5009 58.4464C76.6567 57.8608 76.7624 57.2629 76.8166 56.6594C76.9197 55.5125 76.8938 54.3576 76.7391 53.2165C76.604 52.1299 76.389 51.0548 76.0958 49.9999C75.8382 49.0879 75.53 48.1911 75.1726 47.3134L75.4525 47.0216C76.1385 46.3351 76.8687 45.6944 77.6386 45.1036C78.4 44.5163 79.2135 43.9999 80.0689 43.5608C80.9452 43.0416 81.8923 42.6523 82.8804 42.4052C83.0333 42.3691 83.1679 42.2787 83.2592 42.1509C83.3506 42.0231 83.3925 41.8665 83.3772 41.7102C83.362 41.5539 83.2905 41.4084 83.1762 41.3007C83.0618 41.193 82.9123 41.1304 82.7553 41.1245M60.6503 62.062C59.9117 62.8066 57.5826 63.3785 57.6005 59.2803C57.5983 58.2684 57.7592 57.2627 58.077 56.302C58.5321 54.8821 59.1018 53.5016 59.7806 52.1741C60.0034 51.7535 60.1354 51.2908 60.1678 50.8159C60.1795 50.6275 60.1795 50.4385 60.1678 50.25C60.1678 50.113 60.1142 49.8927 60.2036 49.7735C60.2036 49.7735 60.2393 49.7735 60.2631 49.7735C60.2881 49.823 60.3081 49.8749 60.3227 49.9284L60.4418 50.3335C60.4954 50.5181 60.4954 50.5419 60.5491 50.6968C60.7218 51.4652 61.1447 53.0318 61.3591 54.8188C61.6391 56.8321 62.2527 60.3942 60.6265 62.0084M73.3856 57.6303C73.046 58.4821 72.4265 59.4888 71.402 59.0956C70.4668 58.7263 70.6098 56.9453 70.6276 56.4747C70.6655 55.5812 70.8095 54.6954 71.0565 53.8359C71.3155 52.9378 71.6544 52.0646 72.0691 51.2269L72.1525 51.0721V51.0304C72.2403 50.7595 72.2982 50.4799 72.3253 50.1965C72.3253 50.0118 72.3253 49.8212 72.3253 49.6008C72.3253 49.3804 72.2777 49.2434 72.361 49.1302C72.4444 49.017 72.3968 49.1302 72.4206 49.1302C72.4501 49.1776 72.4703 49.2301 72.4801 49.2851C72.5159 49.3863 72.5636 49.565 72.6052 49.6901C72.6469 49.8152 72.6589 49.8986 72.7065 50.0475C73.7966 53.55 73.737 56.5998 73.3022 57.6125" fill="white"/>
</g>
<defs>
<clipPath id="clip0_16_35">
<rect width="92" height="92" fill="white"/>
</clipPath>
</defs>
</svg>
