<svg fill="none" height="92" viewBox="0 0 92 92" width="92" xmlns="http://www.w3.org/2000/svg" xmlns:xlink="http://www.w3.org/1999/xlink"><clipPath id="a"><path d="m0 0h92v92h-92z"/></clipPath><g clip-path="url(#a)"><path d="m46.003 92.006c25.4067 0 46.003-20.5963 46.003-46.003 0-25.4068-20.5963-46.003-46.003-46.003-25.4068 0-46.003 20.5962-46.003 46.003 0 25.4067 20.5962 46.003 46.003 46.003z" fill="#00afab"/><path d="m34.5365 42.9532c-.5123-2.6805-1.1377-5.3193-1.7215-7.97-.0979-.383-.2213-.7591-.3693-1.1257-.0756-.2152-.2334-.3918-.4387-.4911s-.4416-.1134-.6573-.0391c-.4697.2237-.8873.5434-1.2259.9384-.3385.395-.5906.8565-.7398 1.3549-.3802 1.0683-.4947 2.2132-.3336 3.3357.2026 2.1682.4706 4.3186.6791 6.4808.2264 2.4363.4587 4.8666.5957 7.3147.1198 1.3828.0213 2.7758-.2919 4.128-.3097 1.1913-1.0484 1.501-1.6143 1.1913.2482-.0947.4736-.2409.6612-.4289.1053-.1116.1716-.2545.1888-.407s-.0156-.3065-.0935-.4388c-1.1359-2.0451-2.1002-4.1809-2.883-6.3855-.9947-2.5554-1.912-5.1346-2.8889-7.696-.3753-.9768-.4051-1.9478-1.5547-2.1801-.325-.0603-.6591-.05-.9798.0301-.3207.0802-.6203.2284-.8787.4345-.3931.286-.2383.7625-.2919 1.1914-.0059.0753-.0059.151 0 .2263 0 1.2628.0656 2.5196.0417 3.7825 0 1.3878-.0893 2.7757-.2144 4.1696-.0741.6889-.2425 1.3643-.5004 2.0074 0 0-.81 1.8167-2.1443 1.787-.0111 0-.0217-.0044-.0295-.0123-.0078-.0078-.0122-.0184-.0122-.0294 0-.0111.0044-.0217.0122-.0295.0078-.0079.0184-.0123.0295-.0123.254-.0871.4858-.2287.6793-.415.1934-.1862.3438-.4126.4405-.6631.0026-.0158.0017-.0319-.0025-.0474-.0041-.0154-.0115-.0298-.0216-.0422-.0102-.0124-.0228-.0225-.0371-.0296-.0144-.0072-.03-.0112-.046-.0118-.3143.0236-.6274-.0604-.8876-.2383-3.4608-2.5137-2.9783-9.1553-3.9075-12.902-.151-.8398-.5688-1.6085-1.1913-2.1921-.315-.2986-.6915-.5248-1.103-.6626-.4116-.1379-.84836-.1842-1.27968-.1356-.218.002-.42752.0847-.58814.2321-.16061.1474-.26089.3491-.2815.5661-.03659.3143-.04654.6311-.02978.9471.17274 2.0848.3157 4.1697.59566 6.2545.2629 2.071.73997 4.1092 1.42364 6.0817.5076 1.684 1.3732 3.2385 2.5375 4.5568 2.3112 2.4482 5.6171 1.787 7.2373-.6314 1.0126-1.519 1.2509-3.2523 1.3045-5.0274l.0536-1.6797h.1311c.0595.1489.131.2859.1787.4348.5956 1.7512 1.1317 3.5084 1.7452 5.2478.3415.9729.695 1.9359 1.0603 2.8889l.3038.8161c.4193 1.535 1.2986 2.9049 2.5197 3.9254 2.3826 2.1086 5.7183 1.0901 6.999-3.1689.6181-2.2664.8655-4.6179.7326-6.9633-.0671-2.7585-.354-5.5072-.8577-8.2201m48.1712-1.8943c-1.1076.0177-2.2047.219-3.2464.5957-.2621.0894-.5182.1847-.7743.2919-.2562.1072-.5004.2144-.7446.3336-.4944.2382-.9709.4943-1.4355.7743-.8035.4921-1.5718 1.0394-2.2993 1.6381-.137-.2859-.274-.5659-.4051-.8518-.4586-.9531-.9411-1.8942-1.4772-2.8175l-.0715-.1251c-.1192-.2125-.3087-.3768-.5358-.4647-.2272-.0879-.4779-.094-.7091-.0172s-.4284.2317-.5577.4382c-.1294.2064-.1829.4515-.1512.693.0536.3753.0536.7564 0 1.1317-.0337.1855-.0794.3686-.137.5481-.0586.1748-.1323.3442-.2204.5063-.1642.317-.3796.6047-.6373.8518-.2307.2276-.5067.4042-.8101.5182-.2479.0971-.5169.1279-.7803.0893-.2222-.0389-.4288-.1401-.5957-.2918-.0246-.0166-.0466-.0367-.0655-.0596h-.0357l-.0596-.0655-.0358-.0417c-.1761-.2266-.3185-.4773-.4229-.7446-.0526-.134-.0964-.2713-.131-.411-.0373-.1427-.0632-.2881-.0775-.4348-.0118-.1487-.0118-.2981 0-.4468.0013-.2935.0393-.5856.1132-.8697.0358-.1429.0834-.274.1311-.411.0519-.1296.1136-.255.1846-.3752.0685-.1191.1461-.2326.2323-.3396.0404-.0562.0842-.1099.1311-.1608l.0715-.0774.0714-.0715.1609-.137.125-.1072.1549-.0894.0715-.0417h-.0417l.0953-.0536.0893-.0476c.1187-.0617.2422-.1135.3694-.1549.1262-.0384.2559-.0643.3871-.0774.3095-.0283.6215.0061.9174.1012.1742.0561.3452.1217.5122.1966l.2562.131.125.0715.1132.0596.3038.1012c.125.0436.2603.0486.3882.0144s.2426-.106.3292-.2061.1412-.2239.1567-.3554-.0089-.2646-.0699-.3821c-.0417-.0834-.0656-.1429-.1013-.2085l-.1072-.1787c-.0712-.1206-.1508-.236-.2383-.3454-.1744-.2302-.3742-.44-.5956-.6255-.4666-.4118-1.0238-.7077-1.6262-.8637-.6421-.1547-1.3117-.1547-1.9538 0l-.2382.0596-.2264.0655-.3931.143c-.1489.0655-.3276.1488-.4706.2263-.1429.0774-.274.1549-.4051.2442l-.1965.137-.1906.1489c-.1251.1013-.2442.2085-.3634.3217-.2173.2262-.4165.4692-.5956.7267-.3657.5173-.6397 1.0935-.8102 1.7036-.168.5802-.2443 1.1832-.2263 1.787-.1966.3633-.3991.7267-.5957 1.09-.1429.2383-.2859.4766-.4348.7148-.0893-.1906-.1846-.3752-.2799-.5599-.0953-.1846-.2502-.5182-.3872-.7743-.137-.2562-.2561-.5183-.3931-.7744-.2621-.5123-.5481-1.0186-.834-1.5249l-.0834-.143c-.1376-.2683-.3662-.4789-.645-.594-.2788-.115-.5894-.127-.8762-.0338s-.531.2855-.6889.5425-.219.5617-.1725.8597c.0655.4423.0655.892 0 1.3343-.0313.2183-.0811.4335-.149.6433-.0702.2038-.1537.4028-.2501.5957-.1893.3773-.4388.7214-.7386 1.0185-.2691.2764-.5886.4988-.9412.6553-.2962.1281-.6195.1813-.9412.1548-.2618-.0288-.5099-.1321-.7147-.2978-.0545-.0401-.1063-.0839-.1549-.131l-.0596-.0656-.0715-.0714-.0357-.0358-.0417-.0476-.0774-.1013-.143-.2085c-.1825-.2912-.3248-.6058-.4229-.9352-.0508-.1704-.0925-.3434-.1251-.5182-.0298-.1787-.0536-.3574-.0655-.5361s0-.3574 0-.5361c.0087-.1735.0266-.3465.0536-.5182.0575-.3278.1535-.6477.2859-.9531.0715-.1429.143-.274.2204-.3991.0832-.1232.1747-.2407.274-.3514.099-.1118.2087-.2135.3276-.3038.059-.049.1207-.0947.1847-.137l.0893-.0596h.0358.0357.0477.0417-.0298l.0536-.0297.0953-.0537.2144-.0893c.1494-.0612.3053-.1052.4646-.131.3807-.063.769-.063 1.1497 0 .2213.0275.4403.0714.6552.131l.3395.0893.1668.0537c.0505.0162.1023.0282.1549.0357l.3931.0417c.1947.0181.3893-.0348.548-.1489.1717-.1252.2869-.3132.3204-.5231.0335-.2098-.0175-.4244-.1417-.5968-.0595-.0893-.1012-.1548-.1548-.2203l-.1549-.1966c-.103-.1248-.2123-.244-.3276-.3574-.2386-.231-.4955-.4422-.7684-.6314-.6141-.4218-1.3133-.7034-2.0483-.8249-.735-.1214-1.4877-.0798-2.2048.122h-.0536-.0595l-.149.0476-.2799.1013c-.1787.0715-.3574.1489-.5301.2383-.3472.1807-.6763.3941-.9829.6373-.6032.4947-1.1048 1.1016-1.4772 1.787-.1827.3303-.3381.6749-.4647 1.0305-.1178.3501-.2093.7085-.2739 1.0722-.125.7121-.1431 1.4389-.0537 2.1563.0425.3562.1122.7087.2085 1.0543.0964.3487.2199.6892.3693 1.0186.2928.6715.6954 1.2895 1.1914 1.8287.1251.137.262.268.399.3931l.1549.1311c-.1581.258-.3675.4809-.6151.6549-.2476.1741-.5283.2955-.8246.3569-.2964.0614-.6022.0614-.8986.0001-.2963-.0613-.577-.1827-.8246-.3567-1.1437-.9054-1.114-2.9783-1.3224-4.6283-.2919-2.3052-2.5256-1.5964-2.3827-.0417.143 1.5547-.5956 6.5106-2.8532 5.8673-.5361-.1549-1.0722-.8637-1.2211-2.6209-.2919-3.3 1.5845-6.2068 3.699-5.218.134.0877.2853.1454.4437.1691.1584.0236.32.0127.4737-.0321.1008-.0661.174-.1668.2058-.2831.0318-.1162.0201-.2401-.0331-.3483-.1687-.3508-.4176-.6569-.7267-.8935-.5003-.3916-1.1006-.6349-1.7324-.7023s-1.2698.0438-1.8415.3211c-.9736.3943-1.8436 1.007-2.5428 1.7909s-1.209 1.718-1.4899 2.7301c-.3337 1.0543-.4193 2.1714-.2502 3.2643.1397.9145.4749 1.7881.9829 2.5613.4511.6746 1.0659 1.2238 1.787 1.5964.6456.3507 1.3889.4784 2.1145.3633.6265-.1065 1.2221-.3484 1.7454-.7088.407-.2855.7684-.6309 1.0722-1.0245.3168-.3988.5517-.8563.6909-1.3462.3007.6706.7683 1.2531 1.3581 1.6917 1.9181 1.227 4.4079.2442 5.4205-1.1378.2939-.3912.5455-.8125.7506-1.2568l.137.0655c.3818.1612.7819.2752 1.1913.3395.3955.051.7958.051 1.1913 0 .758-.0951 1.4848-.3598 2.1265-.7743.5841-.3765 1.1015-.8475 1.5309-1.3939.2556-.3233.4828-.668.6791-1.0305.0913.2939.1747.5857.2501.8756.1072.4229.2085.8399.3098 1.2629l-.9709 1.364-.4825.6969-.2443.3515-.2442.3693c-.1727.2561-.3097.4825-.4646.7207l-.2383.3932-.2203.3931c-.5886 1.0436-1.0868 2.1357-1.4892 3.2643-.4188 1.1547-.7027 2.354-.8459 3.5739-.0708.6447-.0907 1.294-.0595 1.9419 0 .1667.0298.3335.0417.5003s.0357.3336.0655.5063l.0417.2502c0 .0894.0417.1847.0595.274.0477.2085.0775.3157.1132.4527v.0655.0775c.0132.0485.0291.0962.0477.143 0 .0953.0655.1906.1012.2859.0764.1896.164.3746.2621.5539.2018.3737.4478.7217.7327 1.0365.3072.3339.6602.6227 1.0484.8577.4141.2433.8646.4182 1.3343.5183.2396.048.4825.0779.7267.0893h.5122.1489c.405-.0404.8044-.1243 1.1914-.2502.3962-.13.7776-.3017 1.1377-.5122.3574-.2118.6909-.4614.9947-.7446.3046-.2774.5782-.587.8161-.9233l.0834-.1251.0953-.1489.0953-.1489.0417-.0715.0298-.0536.1012-.1846.0358-.0656v-.0595l.0596-.1192c.2977-.6151.5293-1.26.6909-1.924 1.1258-4.6938-.3157-10.2453-2.1086-14.5162.2502-.4587.4944-.9233.7267-1.3879.1733.2932.3727.5704.5956.8279.2047.2415.4299.4647.6731.6672l.2026.1608.1727.1251.1192.0774.1072.0715.2263.1251c.623.3204 1.3197.4704 2.0193.4348.6564-.0472 1.2917-.2515 1.8525-.5956.5111-.3037.9647-.6948 1.3403-1.1556.1806-.2186.3458-.4495.4944-.691.0536-.0834.1012-.1727.1489-.2621.1668.554.3216 1.1139.4586 1.6738-.1429.1489-.2859.3038-.4229.4587-.3633.4051-.7148.822-1.0483 1.2628-.1668.2204-.3277.4527-.4885.691l-.2383.3752-.2144.3634c-.5628.9621-1.0335 1.9753-1.4058 3.0259-.3967 1.0871-.6549 2.2198-.7684 3.3715-.0564.6102-.0564 1.2244 0 1.8346 0 .1609.0358.3157.0656.4765l.0417.2383.0595.2681.0536.2144v.0894.0476l.0298.1072c.0601.185.1317.3661.2145.5421.336.7686.8887 1.4226 1.5904 1.8823.3914.2525.8253.4321 1.2806.5301.1142.0237.2296.0416.3455.0536h.1787.5123.2919c1.1846-.1488 2.2759-.7198 3.0736-1.6083l.1906-.2263c.0596-.0774.1191-.1489.1727-.2323.0537-.0834.1072-.1489.1668-.2502l.0834-.1429c.0265-.0402.0504-.082.0715-.1252.2995-.5678.5353-1.1672.7029-1.7869.1558-.5856.2615-1.1835.3157-1.787.1031-1.1469.0772-2.3018-.0775-3.4429-.1351-1.0866-.3501-2.1617-.6433-3.2166-.2576-.912-.5658-1.8088-.9232-2.6865l.2799-.2918c.686-.6865 1.4162-1.3272 2.1861-1.918.7614-.5873 1.5749-1.1037 2.4303-1.5428.8763-.5192 1.8234-.9085 2.8115-1.1556.1529-.0361.2875-.1265.3788-.2543.0914-.1278.1333-.2844.118-.4407-.0152-.1563-.0867-.3018-.201-.4095-.1144-.1077-.2639-.1703-.4209-.1762m-22.105 20.9375c-.7386.7446-3.0677 1.3165-3.0498-2.7817-.0022-1.0119.1587-2.0176.4765-2.9783.4551-1.4199 1.0248-2.8004 1.7036-4.1279.2228-.4206.3548-.8833.3872-1.3582.0117-.1884.0117-.3774 0-.5659 0-.137-.0536-.3573.0358-.4765h.0595c.025.0495.045.1014.0596.1549l.1191.4051c.0536.1846.0536.2084.1073.3633.1727.7684.5956 2.335.81 4.122.28 2.0133.8936 5.5754-.7326 7.1896m12.7591-4.3781c-.3396.8518-.9591 1.8585-1.9836 1.4653-.9352-.3693-.7922-2.1503-.7744-2.6209.0379-.8935.1819-1.7793.4289-2.6388.259-.8981.5979-1.7713 1.0126-2.609l.0834-.1548v-.0417c.0878-.2709.1457-.5505.1728-.8339 0-.1847 0-.3753 0-.5957s-.0476-.3574.0357-.4706c.0834-.1132.0358 0 .0596 0 .0295.0474.0497.0999.0595.1549.0358.1012.0835.2799.1251.405.0417.1251.0537.2085.1013.3574 1.0901 3.5025 1.0305 6.5523.5957 7.565" fill="#fff"/></g></svg>